<?xml version="1.0" encoding="UTF-8" standalone="no"?>
<svg
   xmlns:dc="http://purl.org/dc/elements/1.1/"
   xmlns:cc="http://creativecommons.org/ns#"
   xmlns:rdf="http://www.w3.org/1999/02/22-rdf-syntax-ns#"
   xmlns:svg="http://www.w3.org/2000/svg"
   xmlns="http://www.w3.org/2000/svg"
   xmlns:sodipodi="http://sodipodi.sourceforge.net/DTD/sodipodi-0.dtd"
   xmlns:inkscape="http://www.inkscape.org/namespaces/inkscape"
   width="591.1474"
   height="630.28528"
   viewBox="0 0 472.91792 504.22822"
   version="1.1"
   id="svg24185"
   inkscape:version="0.48.2 r9819"
   sodipodi:docname="frt-graph.svg">
  <metadata
     id="metadata24368">
    <rdf:RDF>
      <cc:Work
         rdf:about="">
        <dc:format>image/svg+xml</dc:format>
        <dc:type
           rdf:resource="http://purl.org/dc/dcmitype/StillImage" />
      </cc:Work>
    </rdf:RDF>
  </metadata>
  <defs
     id="defs24366" />
  <sodipodi:namedview
     pagecolor="#ffffff"
     bordercolor="#666666"
     borderopacity="1"
     objecttolerance="10"
     gridtolerance="10"
     guidetolerance="10"
     inkscape:pageopacity="0"
     inkscape:pageshadow="2"
     inkscape:window-width="1438"
     inkscape:window-height="885"
     id="namedview24364"
     showgrid="false"
     fit-margin-top="5"
     fit-margin-left="5"
     fit-margin-right="5"
     fit-margin-bottom="5"
     inkscape:zoom="0.98768675"
     inkscape:cx="313.50736"
     inkscape:cy="329.51355"
     inkscape:window-x="0"
     inkscape:window-y="13"
     inkscape:window-maximized="0"
     inkscape:current-layer="svg24185" />
  <g
     id="surface1"
     transform="translate(-13.546875,-13.296876)">
    <path
       style="fill:none;stroke:#000000;stroke-width:2;stroke-linecap:butt;stroke-linejoin:miter;stroke-miterlimit:10;stroke-opacity:1"
       d="m 67.089844,191.67969 c 0,5.52343 -4.476563,10 -10,10 -5.523438,0 -10,-4.47657 -10,-10 0,-5.52344 4.476562,-10 10,-10 5.523437,0 10,4.47656 10,10"
       transform="translate(250,250)"
       id="path24188"
       inkscape:connector-curvature="0" />
    <path
       style="fill:#000000;fill-opacity:1;fill-rule:nonzero;stroke:none"
       d="m 321.48437,458.25781 -7.59375,2.26563 0.40625,1.35937 5.67188,-1.6875 -1.48438,2.60938 c -0.23437,0.45312 -1.3125,2.45312 -1.53125,3 -0.79687,2.03125 -0.67187,2.64062 -0.45312,3.39062 0.76562,2.5625 2.90625,2.92188 4.73437,2.375 0.76563,-0.23437 1.70313,-0.65625 2.34375,-1.60937 0.75,-1.21875 0.46875,-2.375 0.29688,-2.96875 l -1.8125,0.53125 c 0.14062,0.45312 0.59375,2.10937 -1.32813,2.67187 -1.70312,0.51563 -2.3125,-0.78125 -2.48437,-1.375 -0.1875,-0.64062 -0.15625,-1.23437 0.25,-2.39062 0.32812,-0.875 0.78125,-1.76563 1.21875,-2.59375 l 2.23437,-4 z m -7.71484,8.65235 c -0.625,-2.125 -1.35937,-3.1875 -2,-3.875 -0.8125,-0.89063 -2.1875,-1.48438 -3.78125,-1.01563 -0.51562,0.15625 -1.48437,0.5625 -2.09375,1.625 -0.78125,1.32813 -0.875,3.09375 -0.0469,5.92188 0.67187,2.25 2.25,5.9375 5.8125,4.875 3.79687,-1.125 2.64062,-5.75 2.10937,-7.53125 z m -1.60937,0.57812 c 0.64062,2.14063 1.15625,4.95313 -0.92188,5.57813 -1.8125,0.54687 -2.89062,-1.29688 -3.75,-4.17188 -0.625,-2.125 -1.0625,-4.85937 0.92188,-5.45312 1.8125,-0.53125 2.95312,1.39062 3.75,4.04687 z m -8.95313,-3.78125"
       id="path24190"
       inkscape:connector-curvature="0" />
    <path
       style="fill:none;stroke:#000000;stroke-width:2;stroke-linecap:butt;stroke-linejoin:miter;stroke-miterlimit:10;stroke-opacity:1"
       d="m 93.75,181.62109 c 0,5.51953 -4.476562,10 -10,10 -5.523438,0 -10,-4.48047 -10,-10 0,-5.52343 4.476562,-10 10,-10 5.523438,0 10,4.47657 10,10"
       transform="translate(250,250)"
       id="path24192"
       inkscape:connector-curvature="0" />
    <path
       style="fill:#000000;fill-opacity:1;fill-rule:nonzero;stroke:none"
       d="m 346.79297,447.63672 -1.57813,0.71875 5.21875,11.3125 1.45313,-0.67188 c 0.39062,-0.84375 1.125,-1.98437 1.92187,-3.04687 l -0.75,-1.64063 c -0.625,0.75 -1.45312,1.9375 -1.875,2.85938 z m -4.16797,5.1914 c -1.17188,-2.32812 -3.23438,-2.09375 -4.78125,-1.375 -4.14063,1.90625 -2.17188,6.20313 -1.40625,7.85938 0.71875,1.53125 1.21875,2.3125 1.73437,2.89062 1.71875,1.98438 3.70313,1.65625 4.92188,1.09375 1.78125,-0.8125 3.14062,-2.71875 1.9375,-5.3125 -1.09375,-2.375 -3.29688,-2.8125 -5.09375,-1.98437 -0.875,0.40625 -1.79688,1.20312 -1.875,2.59375 -0.89063,-1.73438 -2.21875,-4.65625 0.26562,-5.8125 1.26563,-0.57813 2.125,-0.14063 2.57813,0.84375 z m -3.40625,7.8125 c -0.64063,-1.35937 -0.26563,-2.67187 1.01562,-3.26562 1.23438,-0.5625 2.5,-0.125 3.1875,1.34375 0.625,1.34375 0.4375,2.75 -0.89062,3.35937 -1.125,0.51563 -2.5625,0.20313 -3.3125,-1.4375 z m -6.17969,-6.66796"
       id="path24194"
       inkscape:connector-curvature="0" />
    <path
       style="fill:none;stroke:#000000;stroke-width:2;stroke-linecap:butt;stroke-linejoin:miter;stroke-miterlimit:10;stroke-opacity:1"
       d="m 118.71484,167.875 c 0,5.51953 -4.47656,10 -10,10 -5.52343,0 -9.999996,-4.48047 -9.999996,-10 0,-5.52344 4.476566,-10 9.999996,-10 5.52344,0 10,4.47656 10,10"
       transform="translate(250,250)"
       id="path24196"
       inkscape:connector-curvature="0" />
    <path
       style="fill:#000000;fill-opacity:1;fill-rule:nonzero;stroke:none"
       d="m 373.89062,431.875 -1.45312,0.9375 6.76562,10.45312 1.34375,-0.875 c 0.28125,-0.89062 0.8125,-2.125 1.46875,-3.28125 l -0.98437,-1.51562 c -0.5,0.8125 -1.15625,2.125 -1.4375,3.09375 z m -3.61718,10.16016 c 0.375,-0.46875 0.82812,-0.96875 1,-1.78125 0.20312,-0.85938 0.0156,-1.75 -0.4375,-2.4375 -0.51563,-0.79688 -1.39063,-1.35938 -2.28125,-1.51563 -1.20313,-0.20312 -2.39063,0.29688 -3.28125,0.875 -2.59375,1.6875 -2.53125,3.96875 -1.59375,5.40625 1.29687,2.01563 3.25,1.40625 3.98437,1.17188 -1.29687,1.21875 -1.26562,2.71875 -0.60937,3.73437 1.04687,1.625 3.10937,2 5.3125,0.5625 2.75,-1.78125 2.125,-4.10937 1.51562,-5.04687 -0.67187,-1.04688 -2.01562,-1.5625 -3.60937,-0.96875 z m -1.76563,4.5 c -0.65625,-1.03125 -0.25,-2.25 0.90625,-3 1.09375,-0.70313 2.375,-0.57813 3.03125,0.4375 0.6875,1.04687 0.25,2.26562 -0.85937,2.98437 -1.26563,0.82813 -2.45313,0.53125 -3.07813,-0.42187 z m 0.89063,-7.60938 c 0.71875,1.125 0.4375,2.51563 -0.84375,3.34375 -1.20313,0.78125 -2.54688,0.59375 -3.3125,-0.5625 -0.5,-0.79687 -0.85938,-2.23437 0.8125,-3.32812 1.5625,-1 2.82812,-0.26563 3.34375,0.54687 z m -8.21485,1.17188"
       id="path24198"
       inkscape:connector-curvature="0" />
    <path
       style="fill:none;stroke:#000000;stroke-width:2;stroke-linecap:butt;stroke-linejoin:miter;stroke-miterlimit:10;stroke-opacity:1"
       d="m 141.46875,150.71875 c 0,5.52344 -4.47656,10 -10,10 -5.52344,0 -10,-4.47656 -10,-10 0,-5.52344 4.47656,-10 10,-10 5.52344,0 10,4.47656 10,10"
       transform="translate(250,250)"
       id="path24200"
       inkscape:connector-curvature="0" />
    <path
       style="fill:#000000;fill-opacity:1;fill-rule:nonzero;stroke:none"
       d="m 398.48437,412.41406 -1.3125,1.14063 8.1875,9.39062 1.21875,-1.0625 c 0.14063,-0.90625 0.5,-2.21875 0.98438,-3.46875 l -1.20313,-1.35937 c -0.375,0.89062 -0.82812,2.28125 -0.96875,3.26562 z m 2.86329,12.04688 -4.82813,4.21875 -3.60937,-11.40625 -1.51563,1.32812 3.73438,11.26563 1,1.14062 6.20312,-5.42187 z m -14.27344,-2.09375"
       id="path24202"
       inkscape:connector-curvature="0" />
    <path
       style="fill:none;stroke:#000000;stroke-width:2;stroke-linecap:butt;stroke-linejoin:miter;stroke-miterlimit:10;stroke-opacity:1"
       d="m 161.55469,130.50391 c 0,5.52343 -4.47657,10 -10,10 -5.52344,0 -10,-4.47657 -10,-10 0,-5.52344 4.47656,-10 10,-10 5.52343,0 10,4.47656 10,10"
       transform="translate(250,250)"
       id="path24204"
       inkscape:connector-curvature="0" />
    <path
       style="fill:#000000;fill-opacity:1;fill-rule:nonzero;stroke:none"
       d="m 420.05469,389.65625 -1.125,1.32812 9.4375,8.125 1.04687,-1.23437 c 0.0156,-0.92188 0.1875,-2.26563 0.48438,-3.5625 l -1.375,-1.17188 c -0.23438,0.9375 -0.51563,2.35938 -0.51563,3.35938 z m -2.14063,17.06641 c 0.39063,0.28125 1,0.78125 1.95313,0.79687 0.65625,-0.0312 1.79687,-0.26562 2.85937,-1.5 2.57813,-2.98437 -0.25,-6.29687 -2.3125,-8.0625 -1.1875,-1.03125 -2.71875,-2.04687 -4.21875,-2.15625 -1.09375,-0.0469 -2.25,0.54688 -3.03125,1.46875 -1.39062,1.60938 -1.64062,4.14063 0.5625,6.03125 2,1.71875 4.14063,1.28125 5.46875,-0.25 1.1875,-1.375 0.85938,-2.54687 0.6875,-3.23437 2.40625,2.29687 3.0625,3.90625 1.89063,5.26562 -0.51563,0.59375 -1.51563,1.17188 -2.64063,0.21875 z m -3.76562,-8.51563 c 0.90625,-1.04687 2.46875,-1.04687 3.6875,0.0156 1.07812,0.9375 1.59375,2.45312 0.5,3.71875 -1.34375,1.5625 -2.95313,0.51562 -3.625,-0.0625 -1.53125,-1.32813 -1.29688,-2.82813 -0.5625,-3.67188 z m -3.96875,2.92969"
       id="path24206"
       inkscape:connector-curvature="0" />
    <path
       style="fill:none;stroke:#000000;stroke-width:2;stroke-linecap:butt;stroke-linejoin:miter;stroke-miterlimit:10;stroke-opacity:1"
       d="m 178.5625,107.64063 c 0,5.52343 -4.47656,10 -10,10 -5.52344,0 -10,-4.47657 -10,-10 0,-5.52344 4.47656,-10.000005 10,-10.000005 5.52344,0 10,4.476565 10,10.000005"
       transform="translate(250,250)"
       id="path24208"
       inkscape:connector-curvature="0" />
    <path
       style="fill:#000000;fill-opacity:1;fill-rule:nonzero;stroke:none"
       d="m 438.17969,364.07812 -0.9375,1.46875 10.5,6.70313 0.875,-1.35938 c -0.125,-0.92187 -0.15625,-2.28125 -0.0312,-3.59375 l -1.51563,-0.98437 c -0.125,0.96875 -0.1875,2.42187 -0.0469,3.42187 z m -0.82422,6.77735 c -1.82813,-1.07813 -3.625,-0.32813 -4.71875,1.375 -1.45313,2.28125 -0.82813,4.73437 1.25,6.04687 1.79687,1.15625 4.10937,1.1875 5.45312,-0.92187 0.78125,-1.21875 0.54688,-2.3125 0.4375,-2.82813 l 3.26563,2.35938 -2.9375,4.59375 1.23437,0.78125 3.76563,-5.89063 -6.0625,-4.26562 -0.89063,1.39062 c 0.1875,0.21875 0.46875,0.5 0.5625,1.03125 0.125,0.53125 0.0312,1.15625 -0.34375,1.76563 -0.78125,1.21875 -2.125,1.45312 -3.54687,0.53125 -0.6875,-0.4375 -2.23438,-1.78125 -1.07813,-3.60938 0.51563,-0.78125 1.51563,-1.4375 2.60938,-0.79687 z m -7.32422,5.98437"
       id="path24210"
       inkscape:connector-curvature="0" />
    <path
       style="fill:none;stroke:#000000;stroke-width:2;stroke-linecap:butt;stroke-linejoin:miter;stroke-miterlimit:10;stroke-opacity:1"
       d="m 192.15234,82.589844 c 0,5.523437 -4.48047,10 -10,10 -5.52343,0 -10,-4.476563 -10,-10 0,-5.523438 4.47657,-10 10,-10 5.51953,0 10,4.476562 10,10"
       transform="translate(250,250)"
       id="path24212"
       inkscape:connector-curvature="0" />
    <path
       style="fill:#000000;fill-opacity:1;fill-rule:nonzero;stroke:none"
       d="m 452.48437,336.17187 -0.71875,1.57813 11.34375,5.14062 0.67188,-1.46875 c -0.26563,-0.89062 -0.45313,-2.21875 -0.53125,-3.53125 l -1.65625,-0.75 c 0.0156,0.96875 0.17187,2.40625 0.45312,3.375 z m -4.64843,10.25391 -0.70313,1.5625 2.46875,1.10938 -0.76562,1.67187 1.3125,0.60938 0.76562,-1.67188 7.71875,3.5 0.79688,-1.76562 -4.85938,-8.14063 -1.9375,-0.89062 -2.32812,5.125 z m 5.53125,-2.15625 4.23437,6.64063 -6,-2.71875 z m -7.13282,5.69531"
       id="path24214"
       inkscape:connector-curvature="0" />
    <path
       style="fill:none;stroke:#000000;stroke-width:2;stroke-linecap:butt;stroke-linejoin:miter;stroke-miterlimit:10;stroke-opacity:1"
       d="m 202.03906,55.863281 c 0,5.523438 -4.47656,10 -10,10 -5.52344,0 -10,-4.476562 -10,-10 0,-5.523437 4.47656,-10 10,-10 5.52344,0 10,4.476563 10,10"
       transform="translate(250,250)"
       id="path24216"
       inkscape:connector-curvature="0" />
    <path
       style="fill:#000000;fill-opacity:1;fill-rule:nonzero;stroke:none"
       d="m 462.67969,306.52734 -0.48438,1.65625 11.95313,3.48438 0.45312,-1.54688 c -0.375,-0.84375 -0.76562,-2.14062 -1.03125,-3.4375 l -1.73437,-0.51562 c 0.15625,0.96875 0.51562,2.375 0.92187,3.29687 z m 1.45312,6.46875 c -0.51562,-0.125 -1.39062,-0.35937 -2.34375,0.0937 -1.09375,0.5 -1.82812,1.65625 -2.20312,2.92188 -0.79688,2.76562 0.65625,4.6875 2.3125,5.17187 0.26562,0.0781 2.5625,0.75 3.67187,-1.71875 -0.125,1.98438 1.125,2.92188 2.10938,3.21875 1.65625,0.46875 3.625,-0.35937 4.375,-2.98437 0.28125,-0.95313 0.79687,-3.85938 -2.15625,-4.8125 l -0.5,1.75 c 1.4375,0.59375 1.51562,1.82812 1.25,2.71875 -0.34375,1.1875 -1.14063,1.95312 -2.5,1.5625 -1.9375,-0.5625 -1.59375,-2.64063 -1.125,-3.8125 l -1.39063,-0.40625 c -0.17187,0.64062 -0.29687,1.04687 -0.57812,1.65625 -0.46875,0.8125 -1.35938,1.46875 -2.625,1.10937 -1.0625,-0.3125 -1.90625,-1.32812 -1.42188,-3 0.42188,-1.48437 1.45313,-1.98437 2.59375,-1.64062 z m -5.68359,8.0625"
       id="path24218"
       inkscape:connector-curvature="0" />
    <path
       style="fill:none;stroke:#000000;stroke-width:2;stroke-linecap:butt;stroke-linejoin:miter;stroke-miterlimit:10;stroke-opacity:1"
       d="m 208.03125,28.003906 c 0,5.523438 -4.48047,10 -10,10 -5.52344,0 -10,-4.476562 -10,-10 0,-5.523437 4.47656,-10 10,-10 5.51953,0 10,4.476563 10,10"
       transform="translate(250,250)"
       id="path24220"
       inkscape:connector-curvature="0" />
    <path
       style="fill:#000000;fill-opacity:1;fill-rule:nonzero;stroke:none"
       d="m 468.54687,275.72266 -0.23437,1.71875 12.32812,1.75 0.21875,-1.59375 c -0.48437,-0.79688 -1.0625,-2.01563 -1.51562,-3.26563 l -1.78125,-0.25 c 0.28125,0.92188 0.84375,2.25 1.375,3.10938 z m -0.85546,6.01953 -1.10938,7.84375 1.40625,0.20312 0.84375,-5.85937 1.73438,2.4375 c 0.32812,0.42187 1.71875,2.21875 2.09375,2.625 1.51562,1.57812 2.125,1.71875 2.89062,1.82812 2.65625,0.375 3.875,-1.40625 4.14063,-3.29687 0.10937,-0.79688 0.10937,-1.84375 -0.48438,-2.79688 -0.79687,-1.21875 -1.95312,-1.42187 -2.57812,-1.53125 l -0.26563,1.875 c 0.46875,0.0625 2.17188,0.34375 1.89063,2.32813 -0.25,1.76562 -1.6875,1.78125 -2.29688,1.6875 -0.65625,-0.0937 -1.1875,-0.375 -2.0625,-1.21875 -0.67187,-0.67188 -1.28125,-1.45313 -1.85937,-2.21875 l -2.71875,-3.67188 z m -1.25782,8.97265"
       id="path24222"
       inkscape:connector-curvature="0" />
    <path
       style="fill:none;stroke:#000000;stroke-width:2;stroke-linecap:butt;stroke-linejoin:miter;stroke-miterlimit:10;stroke-opacity:1"
       d="m 210,-0.425781 c 0,5.523437 -4.47656,10 -10,10 -5.52344,0 -10,-4.476563 -10,-10 0,-5.523438 4.47656,-10 10,-10 5.52344,0 10,4.476562 10,10"
       transform="translate(250,250)"
       id="path24224"
       inkscape:connector-curvature="0" />
    <path
       style="fill:#000000;fill-opacity:1;fill-rule:nonzero;stroke:none"
       d="m 469.99219,244.39844 0,1.73437 12.45312,-0.0312 0,-1.60937 c -0.59375,-0.70313 -1.35937,-1.84375 -1.96875,-3 l -1.8125,0 c 0.42188,0.875 1.17188,2.125 1.82813,2.89062 z m 0.0195,10.00781 0,1.73437 12.45312,-0.0312 0,-1.60937 c -0.59375,-0.70313 -1.35937,-1.84375 -1.96875,-3 l -1.8125,0 c 0.42188,0.875 1.17188,2.125 1.82813,2.89062 z m 0.008,5.13281"
       id="path24226"
       inkscape:connector-curvature="0" />
    <path
       style="fill:none;stroke:#000000;stroke-width:2;stroke-linecap:butt;stroke-linejoin:miter;stroke-miterlimit:10;stroke-opacity:1"
       d="m 207.91016,-28.847656 c 0,5.523437 -4.47657,10 -10,10 -5.52344,0 -10,-4.476563 -10,-10 0,-5.519532 4.47656,-10 10,-10 5.52343,0 10,4.480468 10,10"
       transform="translate(250,250)"
       id="path24228"
       inkscape:connector-curvature="0" />
    <path
       style="fill:#000000;fill-opacity:1;fill-rule:nonzero;stroke:none"
       d="m 466.96094,213.19531 0.25,1.71875 12.32812,-1.79687 -0.23437,-1.59375 c -0.6875,-0.60938 -1.59375,-1.64063 -2.375,-2.70313 l -1.79688,0.26563 c 0.54688,0.79687 1.45313,1.92187 2.21875,2.59375 z m 6.86718,4.98047 c -2.20312,0.3125 -3.34375,0.89063 -4.09375,1.42188 -1,0.6875 -1.8125,1.95312 -1.5625,3.59375 0.0781,0.53125 0.34375,1.5625 1.3125,2.32812 1.20313,0.95313 2.92188,1.29688 5.84375,0.875 2.3125,-0.32812 6.1875,-1.35937 5.65625,-5.03125 -0.57812,-3.92187 -5.3125,-3.45312 -7.15625,-3.1875 z m 0.34375,1.6875 c 2.20313,-0.32812 5.07813,-0.4375 5.39063,1.71875 0.26562,1.85938 -1.6875,2.67188 -4.65625,3.10938 -2.20313,0.3125 -4.96875,0.35937 -5.26563,-1.6875 -0.28125,-1.875 1.79688,-2.73438 4.53125,-3.14063 z m -5.02734,8.30859"
       id="path24230"
       inkscape:connector-curvature="0" />
    <path
       style="fill:none;stroke:#000000;stroke-width:2;stroke-linecap:butt;stroke-linejoin:miter;stroke-miterlimit:10;stroke-opacity:1"
       d="m 201.80078,-56.679688 c 0,5.523438 -4.47656,10 -10,10 -5.52344,0 -10,-4.476562 -10,-10 0,-5.523437 4.47656,-10 10,-10 5.52344,0 10,4.476563 10,10"
       transform="translate(250,250)"
       id="path24232"
       inkscape:connector-curvature="0" />
    <path
       style="fill:#000000;fill-opacity:1;fill-rule:nonzero;stroke:none"
       d="m 462.64062,182.80469 c -2.46875,0.8125 -2.53125,2.875 -2.04687,4.51562 1.29687,4.375 5.82812,3.04688 7.59375,2.53125 1.60937,-0.48437 2.45312,-0.875 3.10937,-1.29687 2.21875,-1.39063 2.17188,-3.42188 1.79688,-4.71875 -0.5625,-1.85938 -2.25,-3.48438 -5,-2.67188 -2.5,0.73438 -3.25,2.84375 -2.6875,4.75 0.28125,0.92188 0.9375,1.95313 2.28125,2.23438 -1.82813,0.625 -4.92188,1.51562 -5.6875,-1.09375 -0.40625,-1.35938 0.14062,-2.125 1.17187,-2.4375 z m 7.23438,4.48437 c -1.4375,0.42188 -2.67188,-0.125 -3.0625,-1.46875 -0.39063,-1.29687 0.21875,-2.51562 1.76562,-2.96875 1.42188,-0.42187 2.79688,-0.0312 3.21875,1.35938 0.34375,1.1875 -0.1875,2.57812 -1.92187,3.07812 z m -7.47656,5.16016"
       id="path24234"
       inkscape:connector-curvature="0" />
    <path
       style="fill:none;stroke:#000000;stroke-width:2;stroke-linecap:butt;stroke-linejoin:miter;stroke-miterlimit:10;stroke-opacity:1"
       d="m 191.79687,-83.363281 c 0,5.523437 -4.47656,10 -10,10 -5.52343,0 -10,-4.476563 -10,-10 0,-5.523438 4.47657,-10 10,-10 5.52344,0 10,4.476562 10,10"
       transform="translate(250,250)"
       id="path24236"
       inkscape:connector-curvature="0" />
    <path
       style="fill:#000000;fill-opacity:1;fill-rule:nonzero;stroke:none"
       d="m 455.28125,154.125 c -0.39063,-0.4375 -0.82813,-0.9375 -1.625,-1.23438 -0.79688,-0.34375 -1.70313,-0.26562 -2.45313,0.0781 -0.875,0.40625 -1.54687,1.1875 -1.82812,2.04687 -0.375,1.15625 -0.0469,2.39063 0.39062,3.35938 1.28125,2.8125 3.5625,3.07812 5.10938,2.35937 2.1875,-1 1.875,-3.01562 1.75,-3.78125 1,1.46875 2.5,1.65625 3.60937,1.14063 1.75,-0.79688 2.40625,-2.76563 1.3125,-5.15625 -1.35937,-2.98438 -3.76562,-2.70313 -4.76562,-2.23438 -1.14063,0.51563 -1.84375,1.76563 -1.5,3.42188 z m 4.1875,2.40625 c -1.10938,0.5 -2.25,-0.0781 -2.8125,-1.32813 -0.54688,-1.17187 -0.23438,-2.4375 0.85937,-2.9375 1.14063,-0.51562 2.28125,0.0937 2.84375,1.29688 0.625,1.35937 0.15625,2.48437 -0.89062,2.96875 z m -7.375,-1.96875 c 1.20312,-0.54688 2.54687,-0.0625 3.1875,1.32812 0.59375,1.29688 0.20312,2.57813 -1.0625,3.15625 -0.84375,0.39063 -2.32813,0.54688 -3.15625,-1.26562 -0.78125,-1.6875 0.14062,-2.8125 1.03125,-3.21875 z m -0.0312,8.28516"
       id="path24238"
       inkscape:connector-curvature="0" />
    <path
       style="fill:none;stroke:#000000;stroke-width:2;stroke-linecap:butt;stroke-linejoin:miter;stroke-miterlimit:10;stroke-opacity:1"
       d="m 178.10547,-108.35547 c 0,5.52344 -4.48047,10.000001 -10,10.000001 -5.52344,0 -10,-4.476561 -10,-10.000001 0,-5.52344 4.47656,-10 10,-10 5.51953,0 10,4.47656 10,10"
       transform="translate(250,250)"
       id="path24240"
       inkscape:connector-curvature="0" />
    <path
       style="fill:#000000;fill-opacity:1;fill-rule:nonzero;stroke:none"
       d="m 441.76562,121.19531 3.46875,5.375 -11.8125,1.92188 1.09375,1.70312 11.67188,-2.0625 1.28125,-0.82812 -4.45313,-6.92188 z m -4.14062,13.81641"
       id="path24242"
       inkscape:connector-curvature="0" />
    <path
       style="fill:none;stroke:#000000;stroke-width:2;stroke-linecap:butt;stroke-linejoin:miter;stroke-miterlimit:10;stroke-opacity:1"
       d="m 160.99609,-131.14844 c 0,5.52344 -4.47656,10 -10,10 -5.51953,0 -10,-4.47656 -10,-10 0,-5.52343 4.48047,-10 10,-10 5.52344,0 10,4.47657 10,10"
       transform="translate(250,250)"
       id="path24244"
       inkscape:connector-curvature="0" />
    <path
       style="fill:#000000;fill-opacity:1;fill-rule:nonzero;stroke:none"
       d="m 426.01953,102.66406 c 0.32813,-0.34375 0.9375,-0.85937 1.0625,-1.82812 0.0781,-0.64063 0.0156,-1.796878 -1.04687,-3.031252 -2.59375,-2.984376 -6.28125,-0.640626 -8.32813,1.140624 -1.1875,1.03125 -2.40625,2.374998 -2.73437,3.859378 -0.20313,1.0625 0.21875,2.28125 1,3.20312 1.40625,1.60938 3.85937,2.21875 6.0625,0.3125 1.98437,-1.73437 1.85937,-3.90625 0.53125,-5.4375 -1.1875,-1.374998 -2.39063,-1.234372 -3.07813,-1.156248 2.59375,-2.0625 4.29688,-2.46875 5.46875,-1.109374 0.53125,0.59375 0.9375,1.671872 -0.15625,2.640622 z m -8.96875,2.5 c -0.90625,-1.04687 -0.67187,-2.57812 0.5625,-3.64062 1.0625,-0.9375 2.64063,-1.21875 3.73438,0.0469 1.35937,1.5625 0.0937,2.98438 -0.59375,3.5625 -1.53125,1.34375 -2.96875,0.875 -3.70313,0.0312 z m 2.32813,4.35157"
       id="path24246"
       inkscape:connector-curvature="0" />
    <path
       style="fill:none;stroke:#000000;stroke-width:2;stroke-linecap:butt;stroke-linejoin:miter;stroke-miterlimit:10;stroke-opacity:1"
       d="m 140.82422,-151.27734 c 0,5.52343 -4.47656,10 -10,10 -5.51953,0 -10,-4.47657 -10,-10 0,-5.52344 4.48047,-10 10,-10 5.52344,0 10,4.47656 10,10"
       transform="translate(250,250)"
       id="path24248"
       inkscape:connector-curvature="0" />
    <path
       style="fill:#000000;fill-opacity:1;fill-rule:nonzero;stroke:none"
       d="m 390.82422,98.722656 c 0,5.523434 -4.47656,10.000004 -10,10.000004 -5.51953,0 -10,-4.47657 -10,-10.000004 0,-5.523437 4.48047,-10 10,-10 5.52344,0 10,4.476563 10,10 0,5.523434 -4.47656,10.000004 -10,10.000004 -5.51953,0 -10,-4.47657 -10,-10.000004 0,-5.523437 4.48047,-10 10,-10 5.52344,0 10,4.476563 10,10"
       id="path24250"
       inkscape:connector-curvature="0" />
    <path
       style="fill:#000000;fill-opacity:1;fill-rule:nonzero;stroke:none"
       d="m 392.82812,78.761719 c -1.32812,1.65625 -0.84375,3.546875 0.67188,4.875 2.0625,1.765625 4.5625,1.484375 6.17187,-0.359375 1.40625,-1.625 1.76563,-3.90625 -0.125,-5.53125 -1.09375,-0.953125 -2.21875,-0.890625 -2.73437,-0.84375 l 2.8125,-2.890625 4.125,3.5625 0.9375,-1.109375 -5.28125,-4.578125 -5.09375,5.390625 1.23437,1.078125 c 0.25,-0.171875 0.57813,-0.375 1.10938,-0.40625 0.54687,-0.04687 1.15625,0.125 1.70312,0.59375 1.09375,0.9375 1.125,2.296875 0.0156,3.578125 -0.53125,0.609375 -2.07813,1.96875 -3.71875,0.546875 -0.71875,-0.609375 -1.21875,-1.71875 -0.42188,-2.703125 z m 4.86719,8.109375"
       id="path24252"
       inkscape:connector-curvature="0" />
    <path
       style="fill:none;stroke:#000000;stroke-width:2;stroke-linecap:butt;stroke-linejoin:miter;stroke-miterlimit:10;stroke-opacity:1"
       d="m 117.99609,-168.33594 c 0,5.52344 -4.47656,10 -10,10 -5.51953,0 -9.999996,-4.47656 -9.999996,-10 0,-5.51953 4.480466,-10 9.999996,-10 5.52344,0 10,4.48047 10,10"
       transform="translate(250,250)"
       id="path24254"
       inkscape:connector-curvature="0" />
    <path
       style="fill:#000000;fill-opacity:1;fill-rule:nonzero;stroke:none"
       d="m 369.74219,65.441406 1.45312,0.921875 1.45313,-2.28125 1.53125,0.984375 0.79687,-1.21875 -1.53125,-0.984375 4.5625,-7.125 -1.64062,-1.046875 -8.75,3.625 -1.15625,1.796875 4.73437,3.046875 z m -1.32813,-5.796875 7.15625,-3.21875 -3.54687,5.53125 z m 4.59375,7.886719"
       id="path24256"
       inkscape:connector-curvature="0" />
    <path
       style="fill:none;stroke:#000000;stroke-width:2;stroke-linecap:butt;stroke-linejoin:miter;stroke-miterlimit:10;stroke-opacity:1"
       d="m 92.976562,-181.97266 c 0,5.51954 -4.476562,10 -10,10 -5.523437,0 -10,-4.48046 -10,-10 0,-5.52343 4.476563,-10 10,-10 5.523438,0 10,4.47657 10,10"
       transform="translate(250,250)"
       id="path24258"
       inkscape:connector-curvature="0" />
    <path
       style="fill:#000000;fill-opacity:1;fill-rule:nonzero;stroke:none"
       d="m 338.67578,45.109375 c -0.20312,0.5 -0.5625,1.3125 -0.25,2.34375 0.34375,1.140625 1.39063,2.046875 2.57813,2.59375 2.625,1.1875 4.71875,0.01563 5.4375,-1.5625 0.10937,-0.234375 1.10937,-2.40625 -1.14063,-3.84375 1.90625,0.390625 3.03125,-0.703125 3.46875,-1.640625 0.70313,-1.5625 0.15625,-3.640625 -2.3125,-4.765625 -0.92187,-0.40625 -3.70312,-1.359375 -5.09375,1.4375 l 1.65625,0.765625 c 0.8125,-1.359375 2.04688,-1.25 2.89063,-0.859375 1.125,0.515625 1.76562,1.421875 1.17187,2.703125 -0.82812,1.828125 -2.82812,1.1875 -3.92187,0.578125 l -0.59375,1.328125 c 0.57812,0.25 0.98437,0.40625 1.53125,0.796875 0.76562,0.5625 1.28125,1.53125 0.73437,2.734375 -0.45312,1 -1.59375,1.71875 -3.1875,0.984375 -1.39062,-0.625 -1.73437,-1.71875 -1.23437,-2.796875 z m 7.15234,6.792969"
       id="path24260"
       inkscape:connector-curvature="0" />
    <path
       style="fill:none;stroke:#000000;stroke-width:2;stroke-linecap:butt;stroke-linejoin:miter;stroke-miterlimit:10;stroke-opacity:1"
       d="m 66.273438,-191.92187 c 0,5.52343 -4.476563,10 -10,10 -5.523438,0 -10,-4.47657 -10,-10 0,-5.51954 4.476562,-10 10,-10 5.523437,0 10,4.48046 10,10"
       transform="translate(250,250)"
       id="path24262"
       inkscape:connector-curvature="0" />
    <path
       style="fill:#000000;fill-opacity:1;fill-rule:nonzero;stroke:none"
       d="m 308.01953,37.746094 7.59375,2.234375 0.40625,-1.359375 -5.6875,-1.671875 2.67188,-1.375 c 0.4375,-0.25 2.4375,-1.375 2.90625,-1.703125 1.76562,-1.265625 2,-1.84375 2.21875,-2.59375 0.75,-2.5625 -0.85938,-4.03125 -2.6875,-4.5625 -0.76563,-0.234375 -1.78125,-0.375 -2.84375,0.09375 -1.28125,0.59375 -1.67188,1.71875 -1.85938,2.3125 l 1.8125,0.53125 c 0.125,-0.4375 0.64063,-2.09375 2.5625,-1.53125 1.70313,0.5 1.53125,1.921875 1.35938,2.515625 -0.1875,0.640625 -0.5625,1.140625 -1.51563,1.875 -0.75,0.546875 -1.625,1.046875 -2.45312,1.515625 l -4.01563,2.140625 z m 8.68359,2.550781"
       id="path24264"
       inkscape:connector-curvature="0" />
    <path
       style="fill:none;stroke:#000000;stroke-width:2;stroke-linecap:butt;stroke-linejoin:miter;stroke-miterlimit:10;stroke-opacity:1"
       d="m 38.425781,-197.96875 c 0,5.52344 -4.476562,10 -10,10 -5.523437,0 -10,-4.47656 -10,-10 0,-5.52344 4.476563,-10 10,-10 5.523438,0 10,4.47656 10,10"
       transform="translate(250,250)"
       id="path24266"
       inkscape:connector-curvature="0" />
    <path
       style="fill:#000000;fill-opacity:1;fill-rule:nonzero;stroke:none"
       d="m 288.42578,52.03125 c 0,5.523438 -4.47656,10 -10,10 -5.52344,0 -10,-4.476562 -10,-10 0,-5.523438 4.47656,-10 10,-10 5.52344,0 10,4.476562 10,10 0,5.523438 -4.47656,10 -10,10 -5.52344,0 -10,-4.476562 -10,-10 0,-5.523438 4.47656,-10 10,-10 5.52344,0 10,4.476562 10,10"
       id="path24268"
       inkscape:connector-curvature="0" />
    <path
       style="fill:#000000;fill-opacity:1;fill-rule:nonzero;stroke:none"
       d="m 281.14062,32.210938 1.71875,0.25 1.76563,-12.328126 -1.59375,-0.234374 c -0.78125,0.5 -2.01563,1.078124 -3.25,1.515624 l -0.26563,1.796876 c 0.92188,-0.296876 2.26563,-0.859376 3.125,-1.390626 z m 5.07813,0.734374"
       id="path24270"
       inkscape:connector-curvature="0" />
    <path
       style="fill:none;stroke:#000000;stroke-width:2;stroke-linecap:butt;stroke-linejoin:miter;stroke-miterlimit:10;stroke-opacity:1"
       d="m 10,-200 c 0,5.52344 -4.476562,10 -10,10 -5.523438,0 -10,-4.47656 -10,-10 0,-5.52344 4.476562,-10 10,-10 5.523438,0 10,4.47656 10,10"
       transform="translate(250,250)"
       id="path24272"
       inkscape:connector-curvature="0" />
    <path
       style="fill:#000000;fill-opacity:1;fill-rule:nonzero;stroke:none"
       d="m 260,50 c 0,5.523438 -4.47656,10 -10,10 -5.52344,0 -10,-4.476562 -10,-10 0,-5.523438 4.47656,-10 10,-10 5.52344,0 10,4.476562 10,10 0,5.523438 -4.47656,10 -10,10 -5.52344,0 -10,-4.476562 -10,-10 0,-5.523438 4.47656,-10 10,-10 5.52344,0 10,4.476562 10,10"
       id="path24274"
       inkscape:connector-curvature="0" />
    <path
       style="fill:#000000;fill-opacity:1;fill-rule:nonzero;stroke:none"
       d="m 245.79297,23.921875 c 0,2.21875 0.39062,3.4375 0.8125,4.265625 0.53125,1.09375 1.67187,2.0625 3.32812,2.0625 0.54688,0 1.59375,-0.125 2.48438,-0.953125 1.125,-1.0625 1.71875,-2.71875 1.71875,-5.671875 0,-2.34375 -0.45313,-6.328125 -4.17188,-6.328125 -3.95312,0 -4.17187,4.765625 -4.17187,6.625 z m 1.71875,-0.09375 c 0,-2.234375 0.29687,-5.09375 2.46875,-5.09375 1.89062,0 2.40625,2.0625 2.40625,5.0625 0,2.21875 -0.35938,4.96875 -2.4375,4.96875 -1.89063,0 -2.4375,-2.171875 -2.4375,-4.9375 z M 255.00391,30"
       id="path24276"
       inkscape:connector-curvature="0" />
    <path
       style="fill:none;stroke:#000000;stroke-width:2;stroke-linecap:butt;stroke-linejoin:miter;stroke-miterlimit:10;stroke-opacity:1"
       d="m -18.425781,-197.96875 c 0,5.52344 -4.476563,10 -10,10 -5.523438,0 -10,-4.47656 -10,-10 0,-5.52344 4.476562,-10 10,-10 5.523437,0 10,4.47656 10,10"
       transform="translate(250,250)"
       id="path24278"
       inkscape:connector-curvature="0" />
    <path
       style="fill:#000000;fill-opacity:1;fill-rule:nonzero;stroke:none"
       d="m 231.57422,52.03125 c 0,5.523438 -4.47656,10 -10,10 -5.52344,0 -10,-4.476562 -10,-10 0,-5.523438 4.47656,-10 10,-10 5.52344,0 10,4.476562 10,10 0,5.523438 -4.47656,10 -10,10 -5.52344,0 -10,-4.476562 -10,-10 0,-5.523438 4.47656,-10 10,-10 5.52344,0 10,4.476562 10,10"
       id="path24280"
       inkscape:connector-curvature="0" />
    <path
       style="fill:#000000;fill-opacity:1;fill-rule:nonzero;stroke:none"
       d="m 210.98437,29.261719 4.48438,-0.640625 -0.1875,-1.359375 -4.48438,0.640625 z m 10.58985,2.570312 1.71875,-0.25 -1.76563,-12.328125 -1.59375,0.234375 c -0.625,0.6875 -1.64062,1.578125 -2.71875,2.359375 l 0.26563,1.796875 c 0.79687,-0.546875 1.92187,-1.453125 2.59375,-2.203125 z m 5.07812,-0.734375"
       id="path24282"
       inkscape:connector-curvature="0" />
    <path
       style="fill:none;stroke:#000000;stroke-width:2;stroke-linecap:butt;stroke-linejoin:miter;stroke-miterlimit:10;stroke-opacity:1"
       d="m -46.273438,-191.92187 c 0,5.52343 -4.476562,10 -10,10 -5.523437,0 -10,-4.47657 -10,-10 0,-5.51954 4.476563,-10 10,-10 5.523438,0 10,4.48046 10,10"
       transform="translate(250,250)"
       id="path24284"
       inkscape:connector-curvature="0" />
    <path
       style="fill:#000000;fill-opacity:1;fill-rule:nonzero;stroke:none"
       d="m 180,37.03125 4.34375,-1.265625 -0.39063,-1.3125 -4.34375,1.265625 z m 7.09375,2.15625 7.59375,-2.234375 -0.40625,-1.359375 -5.6875,1.671875 1.51562,-2.59375 c 0.25,-0.46875 1.3125,-2.46875 1.53125,-3.015625 0.79688,-2.015625 0.6875,-2.625 0.46875,-3.375 -0.75,-2.5625 -2.89062,-2.9375 -4.71875,-2.40625 -0.76562,0.234375 -1.71875,0.65625 -2.34375,1.625 -0.78125,1.1875 -0.48437,2.34375 -0.32812,2.9375 l 1.8125,-0.53125 c -0.125,-0.4375 -0.57813,-2.09375 1.34375,-2.65625 1.70312,-0.5 2.3125,0.796875 2.48437,1.390625 0.1875,0.640625 0.15625,1.234375 -0.26562,2.375 -0.3125,0.890625 -0.78125,1.765625 -1.23438,2.609375 l -2.23437,3.984375 z m 8.68359,-2.550781"
       id="path24286"
       inkscape:connector-curvature="0" />
    <path
       style="fill:none;stroke:#000000;stroke-width:2;stroke-linecap:butt;stroke-linejoin:miter;stroke-miterlimit:10;stroke-opacity:1"
       d="m -72.976562,-181.97266 c 0,5.51954 -4.476563,10 -10,10 -5.523438,0 -10,-4.48046 -10,-10 0,-5.52343 4.476562,-10 10,-10 5.523437,0 10,4.47657 10,10"
       transform="translate(250,250)"
       id="path24288"
       inkscape:connector-curvature="0" />
    <path
       style="fill:#000000;fill-opacity:1;fill-rule:nonzero;stroke:none"
       d="m 150.46094,49.148438 4.125,-1.875 -0.57813,-1.25 -4.125,1.875 z m 5.73437,-1.691407 c 0.23438,0.46875 0.625,1.28125 1.59375,1.71875 1.09375,0.484375 2.45313,0.296875 3.64063,-0.25 2.625,-1.1875 3.125,-3.546875 2.40625,-5.125 -0.10938,-0.234375 -1.10938,-2.40625 -3.67188,-1.65625 1.5625,-1.203125 1.46875,-2.765625 1.03125,-3.703125 -0.70312,-1.5625 -2.625,-2.484375 -5.09375,-1.359375 -0.92187,0.40625 -3.45312,1.890625 -2.25,4.78125 l 1.65625,-0.765625 c -0.5,-1.484375 0.39063,-2.34375 1.23438,-2.734375 1.125,-0.515625 2.23437,-0.390625 2.82812,0.890625 0.82813,1.828125 -0.95312,2.90625 -2.14062,3.328125 l 0.59375,1.328125 c 0.57812,-0.28125 0.98437,-0.46875 1.625,-0.640625 0.92187,-0.1875 2,0.0625 2.54687,1.265625 0.45313,1 0.25,2.3125 -1.34375,3.046875 -1.39062,0.625 -2.45312,0.1875 -2.92187,-0.921875 z m 9.8086,-0.949219"
       id="path24290"
       inkscape:connector-curvature="0" />
    <path
       style="fill:none;stroke:#000000;stroke-width:2;stroke-linecap:butt;stroke-linejoin:miter;stroke-miterlimit:10;stroke-opacity:1"
       d="m -97.996094,-168.33594 c 0,5.52344 -4.480466,10 -9.999996,10 -5.52344,0 -10,-4.47656 -10,-10 0,-5.51953 4.47656,-10 10,-10 5.51953,0 9.999996,4.48047 9.999996,10"
       transform="translate(250,250)"
       id="path24292"
       inkscape:connector-curvature="0" />
    <path
       style="fill:#000000;fill-opacity:1;fill-rule:nonzero;stroke:none"
       d="m 122.90625,65.339844 3.8125,-2.453125 -0.73437,-1.15625 -3.8125,2.453125 z m 11.76562,-2.738282 1.45313,-0.921874 -1.45313,-2.28125 1.53125,-0.984376 -0.79687,-1.21875 -1.53125,0.984376 -4.5625,-7.125 -1.64062,1.046874 -0.34375,9.46875 1.15624,1.796876 4.73438,-3.046876 z m -5.82812,-1.203124 0.0625,-7.84375 3.54687,5.53125 z m 9.09375,-0.886719"
       id="path24294"
       inkscape:connector-curvature="0" />
    <path
       style="fill:none;stroke:#000000;stroke-width:2;stroke-linecap:butt;stroke-linejoin:miter;stroke-miterlimit:10;stroke-opacity:1"
       d="m -120.82422,-151.27734 c 0,5.52343 -4.48047,10 -10,10 -5.52344,0 -10,-4.47657 -10,-10 0,-5.52344 4.47656,-10 10,-10 5.51953,0 10,4.47656 10,10"
       transform="translate(250,250)"
       id="path24296"
       inkscape:connector-curvature="0" />
    <path
       style="fill:#000000;fill-opacity:1;fill-rule:nonzero;stroke:none"
       d="M 97.960938,85.28125 101.39844,82.3125 100.49219,81.28125 97.054688,84.25 z M 103.40234,82 c 1.45313,1.5625 3.40625,1.359375 4.92188,0.03125 2.0625,-1.765625 2.15625,-4.296875 0.54687,-6.140625 -1.40625,-1.625 -3.60937,-2.3125 -5.5,-0.6875 -1.09375,0.953125 -1.1875,2.078125 -1.23437,2.59375 l -2.468751,-3.203125 4.125001,-3.5625 -0.9375,-1.109375 L 97.574219,74.5 102.16797,80.328125 103.40234,79.25 c -0.125,-0.265625 -0.29687,-0.625 -0.23437,-1.15625 0.0156,-0.546875 0.28125,-1.125 0.82812,-1.59375 1.09375,-0.9375 2.4375,-0.796875 3.54688,0.484375 0.53125,0.609375 1.64062,2.375 0,3.796875 -0.71875,0.609375 -1.875,0.9375 -2.73438,0.01563 z m 8.74219,-3.640625"
       id="path24298"
       inkscape:connector-curvature="0" />
    <path
       style="fill:none;stroke:#000000;stroke-width:2;stroke-linecap:butt;stroke-linejoin:miter;stroke-miterlimit:10;stroke-opacity:1"
       d="m -140.99609,-131.14844 c 0,5.52344 -4.48047,10 -10,10 -5.52344,0 -10,-4.47656 -10,-10 0,-5.52343 4.47656,-10 10,-10 5.51953,0 10,4.47657 10,10"
       transform="translate(250,250)"
       id="path24300"
       inkscape:connector-curvature="0" />
    <path
       style="fill:#000000;fill-opacity:1;fill-rule:nonzero;stroke:none"
       d="m 76.078125,108.55859 2.984375,-3.42187 -1.03125,-0.90625 -2.984375,3.42187 z m 5.367187,-14.476559 c -0.390624,-0.28125 -1,-0.796875 -1.96875,-0.796875 -0.640624,0.01563 -1.796874,0.234375 -2.859374,1.46875 -2.59375,2.984375 0.25,6.296874 2.296874,8.078124 1.1875,1.03125 2.6875,2.0625 4.203126,2.17188 1.078124,0.0625 2.25,-0.53125 3.03125,-1.45313 1.40625,-1.60937 1.671874,-4.124999 -0.53125,-6.031249 -1.984376,-1.734375 -4.140626,-1.3125 -5.46875,0.21875 -1.1875,1.375 -0.890626,2.546879 -0.703126,3.218749 -2.40625,-2.281249 -3.046874,-3.906249 -1.875,-5.265624 0.53125,-0.59375 1.53125,-1.140625 2.65625,-0.203125 z m 3.71875,8.531249 c -0.90625,1.04688 -2.453124,1.01563 -3.6875,-0.0469 -1.0625,-0.9375 -1.578124,-2.4375 -0.484374,-3.703129 1.359374,-1.5625 2.9375,-0.515625 3.625,0.0625 1.53125,1.343749 1.28125,2.843749 0.546874,3.687499 z m 3.984376,-2.917968"
       id="path24302"
       inkscape:connector-curvature="0" />
    <path
       style="fill:none;stroke:#000000;stroke-width:2;stroke-linecap:butt;stroke-linejoin:miter;stroke-miterlimit:10;stroke-opacity:1"
       d="m -158.10547,-108.35547 c 0,5.52344 -4.47656,10.000001 -10,10.000001 -5.51953,0 -10,-4.476561 -10,-10.000001 0,-5.52344 4.48047,-10 10,-10 5.52344,0 10,4.47656 10,10"
       transform="translate(250,250)"
       id="path24304"
       inkscape:connector-curvature="0" />
    <path
       style="fill:#000000;fill-opacity:1;fill-rule:nonzero;stroke:none"
       d="m 57.75,134.72266 2.453125,-3.8125 -1.15625,-0.75 -2.453125,3.8125 z m -2.628906,-8.69532 3.46875,-5.375 6.625,9.95313 1.09375,-1.70313 -6.703125,-9.78125 -1.28125,-0.82812 -4.453125,6.92187 z m 14.296875,-1.9414"
       id="path24306"
       inkscape:connector-curvature="0" />
    <path
       style="fill:none;stroke:#000000;stroke-width:2;stroke-linecap:butt;stroke-linejoin:miter;stroke-miterlimit:10;stroke-opacity:1"
       d="m -171.79687,-83.363281 c 0,5.523437 -4.47657,10 -10,10 -5.52344,0 -10,-4.476563 -10,-10 0,-5.523438 4.47656,-10 10,-10 5.52343,0 10,4.476562 10,10"
       transform="translate(250,250)"
       id="path24308"
       inkscape:connector-curvature="0" />
    <path
       style="fill:#000000;fill-opacity:1;fill-rule:nonzero;stroke:none"
       d="m 43.328125,163.19531 1.890625,-4.10937 -1.25,-0.57813 -1.890625,4.10938 z m 1.3125,-8.91797 c -0.07813,0.59375 -0.171875,1.25 0.125,2.01563 0.265625,0.84375 0.921875,1.48437 1.671875,1.82812 0.875,0.40625 1.890625,0.40625 2.734375,0.0469 1.125,-0.46875 1.859375,-1.51563 2.296875,-2.48438 1.28125,-2.8125 0,-4.70312 -1.546875,-5.42187 -2.1875,-1 -3.5,0.57812 -4,1.15625 0.4375,-1.71875 -0.375,-2.96875 -1.484375,-3.48438 -1.75,-0.79687 -3.6875,-0.0156 -4.78125,2.375 -1.359375,2.98438 0.421875,4.60938 1.421875,5.07813 1.140625,0.51562 2.53125,0.23437 3.5625,-1.10938 z m -0.90625,-4.75 c 1.109375,0.5 1.40625,1.76563 0.84375,3.01563 -0.546875,1.17187 -1.703125,1.75 -2.796875,1.25 -1.140625,-0.51563 -1.4375,-1.78125 -0.875,-2.98438 0.625,-1.35937 1.78125,-1.76562 2.828125,-1.28125 z m 3.3125,6.875 c -1.203125,-0.54687 -1.703125,-1.875 -1.0625,-3.26562 0.59375,-1.29688 1.828125,-1.85938 3.09375,-1.28125 0.84375,0.39062 1.921875,1.42187 1.09375,3.23437 -0.78125,1.6875 -2.234375,1.71875 -3.125,1.3125 z m 6.3125,-5.3789"
       id="path24310"
       inkscape:connector-curvature="0" />
    <path
       style="fill:none;stroke:#000000;stroke-width:2;stroke-linecap:butt;stroke-linejoin:miter;stroke-miterlimit:10;stroke-opacity:1"
       d="m -181.80078,-56.679688 c 0,5.523438 -4.47656,10 -10,10 -5.52344,0 -10,-4.476562 -10,-10 0,-5.523437 4.47656,-10 10,-10 5.52344,0 10,4.476563 10,10"
       transform="translate(250,250)"
       id="path24312"
       inkscape:connector-curvature="0" />
    <path
       style="fill:#000000;fill-opacity:1;fill-rule:nonzero;stroke:none"
       d="m 33.097656,193.46484 1.28125,-4.34375 -1.328125,-0.39062 -1.28125,4.34375 z m 2.746094,-5.53125 c 2.5,0.65625 3.6875,-1.03125 4.171875,-2.67187 1.296875,-4.375 -3.234375,-5.73438 -5,-6.25 -1.609375,-0.48438 -2.515625,-0.59375 -3.296875,-0.60938 -2.625,-0.0156 -3.703125,1.70313 -4.078125,3 -0.5625,1.85938 -0.03125,4.14063 2.71875,4.95313 2.5,0.73437 4.28125,-0.625 4.84375,-2.53125 0.28125,-0.92188 0.28125,-2.14063 -0.6875,-3.10938 1.859375,0.46875 4.953125,1.39063 4.1875,4 -0.40625,1.35938 -1.296875,1.71875 -2.328125,1.40625 z m -3.640625,-7.70312 c 1.4375,0.42187 2.171875,1.5625 1.78125,2.90625 -0.390625,1.29687 -1.5625,1.98437 -3.109375,1.53125 -1.421875,-0.42188 -2.359375,-1.5 -1.9375,-2.89063 0.34375,-1.1875 1.53125,-2.04687 3.265625,-1.54687 z m 9.085937,-0.25391"
       id="path24314"
       inkscape:connector-curvature="0" />
    <path
       style="fill:none;stroke:#000000;stroke-width:2;stroke-linecap:butt;stroke-linejoin:miter;stroke-miterlimit:10;stroke-opacity:1"
       d="m -187.91016,-28.847656 c 0,5.523437 -4.47656,10 -10,10 -5.52343,0 -10,-4.476563 -10,-10 0,-5.519532 4.47657,-10 10,-10 5.52344,0 10,4.480468 10,10"
       transform="translate(250,250)"
       id="path24316"
       inkscape:connector-curvature="0" />
    <path
       style="fill:#000000;fill-opacity:1;fill-rule:nonzero;stroke:none"
       d="m 26.535156,229.82422 0.65625,-4.48438 -1.359375,-0.20312 -0.65625,4.48437 z m 5.457032,-9.44531 0.25,-1.71875 -12.328126,-1.79688 -0.234374,1.59375 c 0.5,0.79688 1.0625,2.01563 1.5,3.26563 l 1.796874,0.26562 c -0.296874,-0.92187 -0.828124,-2.26562 -1.375,-3.125 z m -5.164063,-6.73438 c 2.203125,0.3125 3.46875,0.10938 4.34375,-0.20312 1.15625,-0.375 2.28125,-1.35938 2.53125,-3 0.07813,-0.53125 0.09375,-1.59375 -0.59375,-2.57813 -0.890625,-1.26562 -2.453125,-2.10937 -5.375,-2.53125 -2.3125,-0.32812 -6.3125,-0.45312 -6.84375,3.21875 -0.578125,3.92188 4.09375,4.82813 5.9375,5.09375 z m 0.15625,-1.71875 C 24.78125,211.59766 22,210.89453 22.3125,208.73828 c 0.265625,-1.85937 2.375,-2.07812 5.34375,-1.64062 2.203125,0.3125 4.875,1.07812 4.578125,3.125 -0.28125,1.875 -2.515625,2.10937 -5.25,1.70312 z m 7.191406,-6.52734"
       id="path24318"
       inkscape:connector-curvature="0" />
    <path
       style="fill:none;stroke:#000000;stroke-width:2;stroke-linecap:butt;stroke-linejoin:miter;stroke-miterlimit:10;stroke-opacity:1"
       d="m -190,-0.425781 c 0,5.523437 -4.47656,10 -10,10 -5.52344,0 -10,-4.476563 -10,-10 0,-5.523438 4.47656,-10 10,-10 5.52344,0 10,4.476562 10,10"
       transform="translate(250,250)"
       id="path24320"
       inkscape:connector-curvature="0" />
    <path
       style="fill:#000000;fill-opacity:1;fill-rule:nonzero;stroke:none"
       d="m 25.925781,261.76953 0.01563,-4.53125 -1.375,0 -0.01563,4.53125 z M 30,251.66797 l 0,-1.73438 -12.453125,-0.0312 0,1.60938 c 0.59375,0.70312 1.328125,1.84375 1.9375,3.03125 l 1.8125,0 C 20.875,253.66797 20.15625,252.41797 19.5,251.65234 z m 0.02344,-10.00781 0,-1.73438 -12.453126,-0.0312 0,1.60938 c 0.59375,0.70312 1.328126,1.84375 1.9375,3.03125 l 1.8125,0 c -0.421874,-0.875 -1.140624,-2.125 -1.796874,-2.89063 z m 0.0039,-5.13672"
       id="path24322"
       inkscape:connector-curvature="0" />
    <path
       style="fill:none;stroke:#000000;stroke-width:2;stroke-linecap:butt;stroke-linejoin:miter;stroke-miterlimit:10;stroke-opacity:1"
       d="m -188.03125,28.003906 c 0,5.523438 -4.47656,10 -10,10 -5.51953,0 -10,-4.476562 -10,-10 0,-5.523437 4.48047,-10 10,-10 5.52344,0 10,4.476563 10,10"
       transform="translate(250,250)"
       id="path24324"
       inkscape:connector-curvature="0" />
    <path
       style="fill:#000000;fill-opacity:1;fill-rule:nonzero;stroke:none"
       d="m 29.878906,293.49219 -0.625,-4.48438 -1.375,0.20313 0.625,4.48437 z m 2.582032,-10.57422 -0.234376,-1.71875 -12.328124,1.75 0.21875,1.59375 c 0.671874,0.60937 1.59375,1.64062 2.359374,2.70312 l 1.78125,-0.25 c -0.53125,-0.79687 -1.4375,-1.9375 -2.1875,-2.60937 z m -0.855469,-6.01953 -1.109375,-7.84375 -1.40625,0.20312 0.84375,5.85938 -2.359375,-1.875 c -0.421875,-0.29688 -2.25,-1.65625 -2.75,-1.9375 -1.890625,-1.07813 -2.5,-1.0625 -3.265625,-0.95313 -2.65625,0.375 -3.34375,2.4375 -3.078125,4.32813 0.109375,0.79687 0.421875,1.78125 1.265625,2.54687 1.078125,0.9375 2.265625,0.82813 2.890625,0.75 l -0.265625,-1.875 c -0.46875,0.0625 -2.171875,0.28125 -2.453125,-1.70312 -0.25,-1.76563 1.125,-2.1875 1.734375,-2.28125 0.65625,-0.0937 1.25,0.0312 2.3125,0.625 0.828125,0.45312 1.625,1.01562 2.390625,1.59375 l 3.625,2.79687 z m -1.257813,-8.97266"
       id="path24326"
       inkscape:connector-curvature="0" />
    <path
       style="fill:none;stroke:#000000;stroke-width:2;stroke-linecap:butt;stroke-linejoin:miter;stroke-miterlimit:10;stroke-opacity:1"
       d="m -182.03906,55.863281 c 0,5.523438 -4.47656,10 -10,10 -5.52344,0 -10,-4.476562 -10,-10 0,-5.523437 4.47656,-10 10,-10 5.52344,0 10,4.476563 10,10"
       transform="translate(250,250)"
       id="path24328"
       inkscape:connector-curvature="0" />
    <path
       style="fill:#000000;fill-opacity:1;fill-rule:nonzero;stroke:none"
       d="m 38.296875,324.34375 -1.265625,-4.35938 -1.3125,0.39063 1.265625,4.35937 z m 1.058594,-10.84766 -0.484375,-1.65625 -11.953125,3.48438 0.453125,1.54687 c 0.75,0.5 1.796875,1.39063 2.71875,2.34375 l 1.734375,-0.51562 c -0.65625,-0.71875 -1.703125,-1.71875 -2.546875,-2.26563 z m -4.699219,-4.6875 c 0.484375,-0.15625 1.359375,-0.42187 1.9375,-1.3125 0.625,-1.03125 0.640625,-2.40625 0.265625,-3.67187 -0.796875,-2.76563 -3.0625,-3.59375 -4.71875,-3.10938 -0.265625,0.0781 -2.5625,0.75 -2.171875,3.40625 -0.96875,-1.73437 -2.53125,-1.85937 -3.515625,-1.5625 -1.65625,0.46875 -2.84375,2.23438 -2.09375,4.85938 0.28125,0.95312 1.390625,3.67187 4.40625,2.90625 l -0.5,-1.75 c -1.53125,0.28125 -2.265625,-0.73438 -2.53125,-1.625 -0.34375,-1.1875 -0.07813,-2.26563 1.28125,-2.65625 1.9375,-0.5625 2.75,1.35937 3,2.59375 l 1.390625,-0.40625 c -0.203125,-0.60938 -0.328125,-1.01563 -0.390625,-1.6875 -0.0625,-0.9375 0.328125,-1.96875 1.59375,-2.32813 1.0625,-0.3125 2.34375,0.0781 2.828125,1.75 0.421875,1.48438 -0.171875,2.45313 -1.3125,2.76563 z m 0.46875,-9.84375"
       id="path24330"
       inkscape:connector-curvature="0" />
    <path
       style="fill:none;stroke:#000000;stroke-width:2;stroke-linecap:butt;stroke-linejoin:miter;stroke-miterlimit:10;stroke-opacity:1"
       d="m -172.15234,82.589844 c 0,5.523437 -4.47657,10 -10,10 -5.51953,0 -10,-4.476563 -10,-10 0,-5.523438 4.48047,-10 10,-10 5.52343,0 10,4.476562 10,10"
       transform="translate(250,250)"
       id="path24332"
       inkscape:connector-curvature="0" />
    <path
       style="fill:#000000;fill-opacity:1;fill-rule:nonzero;stroke:none"
       d="m 51.003906,353.67578 -1.875,-4.125 -1.25,0.5625 1.875,4.125 z m -0.492187,-10.88281 -0.71875,-1.57813 -11.34375,5.14063 0.671875,1.46875 c 0.828125,0.39062 1.984375,1.125 3.03125,1.9375 l 1.65625,-0.75 c -0.765625,-0.625 -1.953125,-1.46875 -2.859375,-1.875 z m -4.648438,-10.25391 -0.703125,-1.5625 -2.46875,1.10938 -0.765625,-1.67188 -1.3125,0.60938 0.765625,1.67187 -7.71875,3.5 0.796875,1.76563 9.328125,1.70312 1.9375,-0.89062 -2.328125,-5.125 z m -2.03125,5.59375 -7.765625,-1.20312 6,-2.71875 z m 0.429688,-9.1289"
       id="path24334"
       inkscape:connector-curvature="0" />
    <path
       style="fill:none;stroke:#000000;stroke-width:2;stroke-linecap:butt;stroke-linejoin:miter;stroke-miterlimit:10;stroke-opacity:1"
       d="m -158.5625,107.64063 c 0,5.52343 -4.47656,10 -10,10 -5.52344,0 -10,-4.47657 -10,-10 0,-5.52344 4.47656,-10.000005 10,-10.000005 5.52344,0 10,4.476565 10,10.000005"
       transform="translate(250,250)"
       id="path24336"
       inkscape:connector-curvature="0" />
    <path
       style="fill:#000000;fill-opacity:1;fill-rule:nonzero;stroke:none"
       d="m 67.765625,380.91016 -2.4375,-3.82813 -1.15625,0.75 2.4375,3.82813 z m -2.039063,-10.70704 -0.9375,-1.46875 -10.5,6.70313 0.875,1.35937 c 0.875,0.26563 2.125,0.84375 3.28125,1.5 l 1.515626,-0.98437 c -0.8125,-0.5 -2.125,-1.17188 -3.078126,-1.45313 z m -5.792968,-3.59375 c 1.734375,-1.20312 1.8125,-3.17187 0.71875,-4.875 -1.453125,-2.28125 -3.921875,-2.73437 -6,-1.42187 -1.796875,1.15625 -2.796875,3.25 -1.453125,5.35937 0.78125,1.21875 1.859375,1.46875 2.375,1.57813 l -3.515625,1.98437 -2.9375,-4.59375 -1.234375,0.78125 3.765625,5.89063 6.4375,-3.70313 -0.890625,-1.39062 c -0.28125,0.0937 -0.65625,0.1875 -1.1875,0.0625 -0.53125,-0.0937 -1.0625,-0.4375 -1.4375,-1.04688 -0.78125,-1.21875 -0.4375,-2.51562 0.984375,-3.4375 0.6875,-0.4375 2.578125,-1.28125 3.734375,0.54688 0.515625,0.78125 0.671875,1.96875 -0.359375,2.70312 z m -2.355469,-9.16796"
       id="path24338"
       inkscape:connector-curvature="0" />
    <path
       style="fill:none;stroke:#000000;stroke-width:2;stroke-linecap:butt;stroke-linejoin:miter;stroke-miterlimit:10;stroke-opacity:1"
       d="m -141.55469,130.50391 c 0,5.52343 -4.47656,10 -10,10 -5.52343,0 -10,-4.47657 -10,-10 0,-5.52344 4.47657,-10 10,-10 5.52344,0 10,4.47656 10,10"
       transform="translate(250,250)"
       id="path24340"
       inkscape:connector-curvature="0" />
    <path
       style="fill:#000000;fill-opacity:1;fill-rule:nonzero;stroke:none"
       d="m 88.230469,405.48828 -2.96875,-3.4375 -1.046875,0.89063 2.96875,3.4375 z m -3.550781,-10.30859 -1.125,-1.32813 -9.4375,8.125 1.046874,1.23438 c 0.921876,0.14062 2.21875,0.51562 3.453126,1 l 1.375,-1.17188 c -0.890626,-0.40625 -2.265626,-0.85937 -3.265626,-1.01562 z m -16.546876,-4.66016 c -0.328124,0.34375 -0.9375,0.875 -1.078124,1.82813 -0.0625,0.625 -0.01563,1.79687 1.046874,3.03125 2.578126,2.98437 6.28125,0.67187 8.34375,-1.09375 1.1875,-1.03125 2.40625,-2.35938 2.75,-3.84375 0.1875,-1.07813 -0.21875,-2.29688 -1,-3.21875 -1.390624,-1.60938 -3.859374,-2.23438 -6.0625,-0.34375 -2,1.71875 -1.890624,3.90625 -0.5625,5.4375 1.1875,1.375 2.390626,1.26562 3.09375,1.17187 -2.625,2.04688 -4.3125,2.4375 -5.484374,1.07813 -0.515626,-0.59375 -0.921876,-1.67188 0.171874,-2.625 z m 8.984376,-2.45312 c 0.90625,1.04687 0.65625,2.57812 -0.5625,3.64062 -1.078126,0.9375 -2.65625,1.20313 -3.75,-0.0625 -1.34375,-1.5625 -0.07813,-2.98437 0.59375,-3.5625 1.53125,-1.32812 2.984374,-0.85937 3.71875,-0.0156 z m -2.3125,-4.36719"
       id="path24342"
       inkscape:connector-curvature="0" />
    <path
       style="fill:none;stroke:#000000;stroke-width:2;stroke-linecap:butt;stroke-linejoin:miter;stroke-miterlimit:10;stroke-opacity:1"
       d="m -121.46875,150.71875 c 0,5.52344 -4.47656,10 -10,10 -5.52344,0 -10,-4.47656 -10,-10 0,-5.52344 4.47656,-10 10,-10 5.52344,0 10,4.47656 10,10"
       transform="translate(250,250)"
       id="path24344"
       inkscape:connector-curvature="0" />
    <path
       style="fill:#000000;fill-opacity:1;fill-rule:nonzero;stroke:none"
       d="m 111.96484,426.88672 -3.42187,-2.96875 -0.90625,1.03125 3.42187,2.96875 z m -4.96875,-9.69141 -1.3125,-1.14062 -8.187496,9.39062 1.21875,1.0625 c 0.921875,0 2.281246,0.1875 3.546876,0.5 l 1.20312,-1.35937 c -0.9375,-0.26563 -2.35937,-0.53125 -3.375,-0.54688 z m -11.542965,4.48438 -4.828125,-4.21875 10.79688,-5.125 -1.51563,-1.32813 -10.640625,5.23438 -1,1.14062 6.203125,5.42188 z m 0.128906,-14.4375"
       id="path24346"
       inkscape:connector-curvature="0" />
    <path
       style="fill:none;stroke:#000000;stroke-width:2;stroke-linecap:butt;stroke-linejoin:miter;stroke-miterlimit:10;stroke-opacity:1"
       d="m -98.714844,167.875 c 0,5.51953 -4.476566,10 -9.999996,10 -5.52344,0 -10,-4.48047 -10,-10 0,-5.52344 4.47656,-10 10,-10 5.52343,0 9.999996,4.47656 9.999996,10"
       transform="translate(250,250)"
       id="path24348"
       inkscape:connector-curvature="0" />
    <path
       style="fill:#000000;fill-opacity:1;fill-rule:nonzero;stroke:none"
       d="m 138.50391,444.71484 -3.8125,-2.46875 -0.75,1.15625 3.8125,2.46875 z m -6.29688,-8.89843 -1.45312,-0.9375 -6.76563,10.45312 1.34375,0.875 c 0.90625,-0.10937 2.28125,-0.125 3.59375,0 l 0.98438,-1.51562 c -0.96875,-0.125 -2.40625,-0.1875 -3.40625,-0.0625 z m -10.74219,0.87109 c 0.5625,0.15625 1.20313,0.34375 2.03125,0.15625 0.85938,-0.14063 1.57813,-0.6875 2.03125,-1.375 0.51563,-0.79688 0.67188,-1.82813 0.4375,-2.70313 -0.29687,-1.17187 -1.23437,-2.04687 -2.125,-2.625 -2.59375,-1.6875 -4.65625,-0.6875 -5.59375,0.75 -1.29687,2.01563 0.0625,3.53125 0.57813,4.10938 -1.64063,-0.6875 -3.01563,-0.0312 -3.67188,0.98437 -1.04687,1.625 -0.54687,3.625 1.65625,5.0625 2.75,1.78125 4.625,0.26563 5.23438,-0.67187 0.67187,-1.04688 0.60937,-2.46875 -0.57813,-3.6875 z m -4.82812,0.21875 c 0.65625,-1.03125 1.9375,-1.15625 3.09375,-0.40625 1.09375,0.70312 1.5,1.95312 0.84375,2.96875 -0.6875,1.04687 -1.96875,1.14062 -3.07813,0.42187 -1.26562,-0.82812 -1.48437,-2.03125 -0.85937,-2.98437 z m 7.29687,-2.29688 c -0.71875,1.125 -2.125,1.42188 -3.40625,0.59375 -1.20312,-0.78125 -1.57812,-2.09375 -0.8125,-3.25 0.5,-0.79687 1.67188,-1.70312 3.34375,-0.60937 1.5625,1 1.39063,2.45312 0.875,3.26562 z M 119.5,427.59375"
       id="path24350"
       inkscape:connector-curvature="0" />
    <path
       style="fill:none;stroke:#000000;stroke-width:2;stroke-linecap:butt;stroke-linejoin:miter;stroke-miterlimit:10;stroke-opacity:1"
       d="m -73.75,181.62109 c 0,5.51953 -4.476562,10 -10,10 -5.523438,0 -10,-4.48047 -10,-10 0,-5.52343 4.476562,-10 10,-10 5.523438,0 10,4.47657 10,10"
       transform="translate(250,250)"
       id="path24352"
       inkscape:connector-curvature="0" />
    <path
       style="fill:#000000;fill-opacity:1;fill-rule:nonzero;stroke:none"
       d="m 167.30859,458.58594 -4.10937,-1.90625 -0.57813,1.25 4.10938,1.90625 z m -7.48828,-7.91797 -1.57812,-0.71875 -5.21875,11.3125 1.45312,0.67187 c 0.89063,-0.25 2.25,-0.45312 3.57813,-0.51562 l 0.75,-1.64063 c -0.96875,0 -2.42188,0.15625 -3.375,0.42188 z m -6.66797,0.21875 c 1.01563,-2.39063 -0.48437,-3.8125 -2.03125,-4.53125 -4.14062,-1.90625 -6.14062,2.39062 -6.90625,4.04687 -0.71875,1.53125 -0.96875,2.40625 -1.07812,3.17188 -0.40625,2.60937 1.14062,3.90625 2.35937,4.46875 1.78125,0.8125 4.10938,0.625 5.3125,-1.96875 1.09375,-2.375 -0.0156,-4.34375 -1.8125,-5.17188 -0.875,-0.40625 -2.07812,-0.57812 -3.1875,0.25 0.73438,-1.79687 2.09375,-4.71875 4.57813,-3.5625 1.26562,0.57813 1.5,1.51563 1.04687,2.5 z m -8.15625,2.46875 c 0.64063,-1.35938 1.85938,-1.92188 3.14063,-1.32813 1.23437,0.5625 1.75,1.8125 1.0625,3.28125 -0.625,1.34375 -1.8125,2.125 -3.14063,1.51563 -1.125,-0.51563 -1.8125,-1.82813 -1.0625,-3.46875 z m 1.06641,-9.01953"
       id="path24354"
       inkscape:connector-curvature="0" />
    <path
       style="fill:none;stroke:#000000;stroke-width:2;stroke-linecap:butt;stroke-linejoin:miter;stroke-miterlimit:10;stroke-opacity:1"
       d="m -47.089844,191.67969 c 0,5.52343 -4.476562,10 -10,10 -5.523437,0 -10,-4.47657 -10,-10 0,-5.52344 4.476563,-10 10,-10 5.523438,0 10,4.47656 10,10"
       transform="translate(250,250)"
       id="path24356"
       inkscape:connector-curvature="0" />
    <path
       style="fill:#000000;fill-opacity:1;fill-rule:nonzero;stroke:none"
       d="m 197.79297,468.21484 -4.34375,-1.28125 -0.39063,1.32813 4.34375,1.28125 z m -4.77735,-5.63281 -7.59375,-2.26562 -0.40625,1.35937 5.67188,1.6875 -2.67188,1.35938 c -0.45312,0.26562 -2.4375,1.35937 -2.90625,1.6875 -1.79687,1.28125 -2.01562,1.82812 -2.23437,2.57812 -0.76563,2.5625 0.8125,4.04688 2.64062,4.59375 0.76563,0.23438 1.79688,0.375 2.84375,-0.0781 1.3125,-0.59375 1.6875,-1.71875 1.89063,-2.3125 l -1.8125,-0.53125 c -0.14063,0.45312 -0.65625,2.07812 -2.57813,1.51562 -1.70312,-0.51562 -1.5,-1.9375 -1.32812,-2.53125 0.1875,-0.64062 0.53125,-1.10937 1.5,-1.85937 0.76562,-0.5625 1.625,-1.04688 2.46875,-1.5 l 4.04687,-2.125 z m -11.18359,3.00391 c 0.625,-2.125 0.60938,-3.40625 0.4375,-4.3125 -0.1875,-1.20313 -1,-2.45313 -2.59375,-2.92188 -0.51562,-0.15625 -1.57812,-0.34375 -2.65625,0.1875 -1.375,0.70313 -2.4375,2.125 -3.26562,4.95313 -0.67188,2.25 -1.375,6.1875 2.1875,7.25 3.79687,1.125 5.35937,-3.375 5.89062,-5.15625 z m -1.67187,-0.39063 c -0.64063,2.14063 -1.75,4.79688 -3.82813,4.17188 -1.8125,-0.54688 -1.70312,-2.67188 -0.84375,-5.54688 0.625,-2.125 1.75,-4.64062 3.73438,-4.04687 1.8125,0.53125 1.73437,2.76562 0.9375,5.42187 z m -5.41797,-8.0625"
       id="path24358"
       inkscape:connector-curvature="0" />
    <path
       style="fill:none;stroke:#000000;stroke-width:2;stroke-linecap:butt;stroke-linejoin:miter;stroke-miterlimit:10;stroke-opacity:1"
       d="M 28.246094,-188.33984 C 16.796875,-165 6.824219,-165.71484 -1.191406,-190.44141"
       transform="translate(250,250)"
       id="path24360"
       inkscape:connector-curvature="0" />
    <path
       style="fill:#000000;fill-opacity:1;fill-rule:nonzero;stroke:none"
       d="m 248.80859,59.558594 7.83985,7.96875 -9.51172,3.085937 z m 0,0"
       id="path24362"
       inkscape:connector-curvature="0" />
  </g>
  <text
     xml:space="preserve"
     style="font-size:14.39999962px;font-style:normal;font-variant:normal;font-weight:normal;font-stretch:normal;line-height:125%;letter-spacing:0px;word-spacing:0px;fill:#000000;fill-opacity:1;stroke:none;font-family:Univers LT Std;-inkscape-font-specification:Univers LT Std"
     x="160.39799"
     y="496.52264"
     id="text24370"
     sodipodi:linespacing="125%"><tspan
       sodipodi:role="line"
       id="tspan24372"
       x="160.39799"
       y="496.52264"
       style="font-size:19.20000076px">(48 parameters)</tspan></text>
</svg>
