<?xml version="1.0" encoding="UTF-8"?>
<svg xmlns="http://www.w3.org/2000/svg" xmlns:xlink="http://www.w3.org/1999/xlink" width="500pt" height="500pt" viewBox="0 0 500 500" version="1.1">
<g id="surface1">
<path style="fill:none;stroke-width:2;stroke-linecap:butt;stroke-linejoin:miter;stroke:rgb(0%,0%,0%);stroke-opacity:1;stroke-miterlimit:10;" d="M 67.089844 191.679688 C 67.089844 197.203125 62.613281 201.679688 57.089844 201.679688 C 51.566406 201.679688 47.089844 197.203125 47.089844 191.679688 C 47.089844 186.15625 51.566406 181.679688 57.089844 181.679688 C 62.613281 181.679688 67.089844 186.15625 67.089844 191.679688 " transform="matrix(1,0,0,1,250,250)"/>
<path style=" stroke:none;fill-rule:nonzero;fill:rgb(0%,0%,0%);fill-opacity:1;" d="M 321.484375 458.257812 L 313.890625 460.523438 L 314.296875 461.882812 L 319.96875 460.195312 L 318.484375 462.804688 C 318.25 463.257812 317.171875 465.257812 316.953125 465.804688 C 316.15625 467.835938 316.28125 468.445312 316.5 469.195312 C 317.265625 471.757812 319.40625 472.117188 321.234375 471.570312 C 322 471.335938 322.9375 470.914062 323.578125 469.960938 C 324.328125 468.742188 324.046875 467.585938 323.875 466.992188 L 322.0625 467.523438 C 322.203125 467.976562 322.65625 469.632812 320.734375 470.195312 C 319.03125 470.710938 318.421875 469.414062 318.25 468.820312 C 318.0625 468.179688 318.09375 467.585938 318.5 466.429688 C 318.828125 465.554688 319.28125 464.664062 319.71875 463.835938 L 321.953125 459.835938 Z M 313.769531 466.910156 C 313.144531 464.785156 312.410156 463.722656 311.769531 463.035156 C 310.957031 462.144531 309.582031 461.550781 307.988281 462.019531 C 307.472656 462.175781 306.503906 462.582031 305.894531 463.644531 C 305.113281 464.972656 305.019531 466.738281 305.847656 469.566406 C 306.519531 471.816406 308.097656 475.503906 311.660156 474.441406 C 315.457031 473.316406 314.300781 468.691406 313.769531 466.910156 Z M 312.160156 467.488281 C 312.800781 469.628906 313.316406 472.441406 311.238281 473.066406 C 309.425781 473.613281 308.347656 471.769531 307.488281 468.894531 C 306.863281 466.769531 306.425781 464.035156 308.410156 463.441406 C 310.222656 462.910156 311.363281 464.832031 312.160156 467.488281 Z M 303.207031 463.707031 "/>
<path style="fill:none;stroke-width:2;stroke-linecap:butt;stroke-linejoin:miter;stroke:rgb(0%,0%,0%);stroke-opacity:1;stroke-miterlimit:10;" d="M 93.75 181.621094 C 93.75 187.140625 89.273438 191.621094 83.75 191.621094 C 78.226562 191.621094 73.75 187.140625 73.75 181.621094 C 73.75 176.097656 78.226562 171.621094 83.75 171.621094 C 89.273438 171.621094 93.75 176.097656 93.75 181.621094 " transform="matrix(1,0,0,1,250,250)"/>
<path style=" stroke:none;fill-rule:nonzero;fill:rgb(0%,0%,0%);fill-opacity:1;" d="M 346.792969 447.636719 L 345.214844 448.355469 L 350.433594 459.667969 L 351.886719 458.996094 C 352.277344 458.152344 353.011719 457.011719 353.808594 455.949219 L 353.058594 454.308594 C 352.433594 455.058594 351.605469 456.246094 351.183594 457.167969 Z M 342.625 452.828125 C 341.453125 450.5 339.390625 450.734375 337.84375 451.453125 C 333.703125 453.359375 335.671875 457.65625 336.4375 459.3125 C 337.15625 460.84375 337.65625 461.625 338.171875 462.203125 C 339.890625 464.1875 341.875 463.859375 343.09375 463.296875 C 344.875 462.484375 346.234375 460.578125 345.03125 457.984375 C 343.9375 455.609375 341.734375 455.171875 339.9375 456 C 339.0625 456.40625 338.140625 457.203125 338.0625 458.59375 C 337.171875 456.859375 335.84375 453.9375 338.328125 452.78125 C 339.59375 452.203125 340.453125 452.640625 340.90625 453.625 Z M 339.21875 460.640625 C 338.578125 459.28125 338.953125 457.96875 340.234375 457.375 C 341.46875 456.8125 342.734375 457.25 343.421875 458.71875 C 344.046875 460.0625 343.859375 461.46875 342.53125 462.078125 C 341.40625 462.59375 339.96875 462.28125 339.21875 460.640625 Z M 333.039062 453.972656 "/>
<path style="fill:none;stroke-width:2;stroke-linecap:butt;stroke-linejoin:miter;stroke:rgb(0%,0%,0%);stroke-opacity:1;stroke-miterlimit:10;" d="M 118.714844 167.875 C 118.714844 173.394531 114.238281 177.875 108.714844 177.875 C 103.191406 177.875 98.714844 173.394531 98.714844 167.875 C 98.714844 162.351562 103.191406 157.875 108.714844 157.875 C 114.238281 157.875 118.714844 162.351562 118.714844 167.875 " transform="matrix(1,0,0,1,250,250)"/>
<path style=" stroke:none;fill-rule:nonzero;fill:rgb(0%,0%,0%);fill-opacity:1;" d="M 373.890625 431.875 L 372.4375 432.8125 L 379.203125 443.265625 L 380.546875 442.390625 C 380.828125 441.5 381.359375 440.265625 382.015625 439.109375 L 381.03125 437.59375 C 380.53125 438.40625 379.875 439.71875 379.59375 440.6875 Z M 370.273438 442.035156 C 370.648438 441.566406 371.101562 441.066406 371.273438 440.253906 C 371.476562 439.394531 371.289062 438.503906 370.835938 437.816406 C 370.320312 437.019531 369.445312 436.457031 368.554688 436.300781 C 367.351562 436.097656 366.164062 436.597656 365.273438 437.175781 C 362.679688 438.863281 362.742188 441.144531 363.679688 442.582031 C 364.976562 444.597656 366.929688 443.988281 367.664062 443.753906 C 366.367188 444.972656 366.398438 446.472656 367.054688 447.488281 C 368.101562 449.113281 370.164062 449.488281 372.367188 448.050781 C 375.117188 446.269531 374.492188 443.941406 373.882812 443.003906 C 373.210938 441.957031 371.867188 441.441406 370.273438 442.035156 Z M 368.507812 446.535156 C 367.851562 445.503906 368.257812 444.285156 369.414062 443.535156 C 370.507812 442.832031 371.789062 442.957031 372.445312 443.972656 C 373.132812 445.019531 372.695312 446.238281 371.585938 446.957031 C 370.320312 447.785156 369.132812 447.488281 368.507812 446.535156 Z M 369.398438 438.925781 C 370.117188 440.050781 369.835938 441.441406 368.554688 442.269531 C 367.351562 443.050781 366.007812 442.863281 365.242188 441.707031 C 364.742188 440.910156 364.382812 439.472656 366.054688 438.378906 C 367.617188 437.378906 368.882812 438.113281 369.398438 438.925781 Z M 361.183594 440.097656 "/>
<path style="fill:none;stroke-width:2;stroke-linecap:butt;stroke-linejoin:miter;stroke:rgb(0%,0%,0%);stroke-opacity:1;stroke-miterlimit:10;" d="M 141.46875 150.71875 C 141.46875 156.242188 136.992188 160.71875 131.46875 160.71875 C 125.945312 160.71875 121.46875 156.242188 121.46875 150.71875 C 121.46875 145.195312 125.945312 140.71875 131.46875 140.71875 C 136.992188 140.71875 141.46875 145.195312 141.46875 150.71875 " transform="matrix(1,0,0,1,250,250)"/>
<path style=" stroke:none;fill-rule:nonzero;fill:rgb(0%,0%,0%);fill-opacity:1;" d="M 398.484375 412.414062 L 397.171875 413.554688 L 405.359375 422.945312 L 406.578125 421.882812 C 406.71875 420.976562 407.078125 419.664062 407.5625 418.414062 L 406.359375 417.054688 C 405.984375 417.945312 405.53125 419.335938 405.390625 420.320312 Z M 401.347656 424.460938 L 396.519531 428.679688 L 392.910156 417.273438 L 391.394531 418.601562 L 395.128906 429.867188 L 396.128906 431.007812 L 402.332031 425.585938 Z M 387.074219 422.367188 "/>
<path style="fill:none;stroke-width:2;stroke-linecap:butt;stroke-linejoin:miter;stroke:rgb(0%,0%,0%);stroke-opacity:1;stroke-miterlimit:10;" d="M 161.554688 130.503906 C 161.554688 136.027344 157.078125 140.503906 151.554688 140.503906 C 146.03125 140.503906 141.554688 136.027344 141.554688 130.503906 C 141.554688 124.980469 146.03125 120.503906 151.554688 120.503906 C 157.078125 120.503906 161.554688 124.980469 161.554688 130.503906 " transform="matrix(1,0,0,1,250,250)"/>
<path style=" stroke:none;fill-rule:nonzero;fill:rgb(0%,0%,0%);fill-opacity:1;" d="M 420.054688 389.65625 L 418.929688 390.984375 L 428.367188 399.109375 L 429.414062 397.875 C 429.429688 396.953125 429.601562 395.609375 429.898438 394.3125 L 428.523438 393.140625 C 428.289062 394.078125 428.007812 395.5 428.007812 396.5 Z M 417.914062 406.722656 C 418.304688 407.003906 418.914062 407.503906 419.867188 407.519531 C 420.523438 407.488281 421.664062 407.253906 422.726562 406.019531 C 425.304688 403.035156 422.476562 399.722656 420.414062 397.957031 C 419.226562 396.925781 417.695312 395.910156 416.195312 395.800781 C 415.101562 395.753906 413.945312 396.347656 413.164062 397.269531 C 411.773438 398.878906 411.523438 401.410156 413.726562 403.300781 C 415.726562 405.019531 417.867188 404.582031 419.195312 403.050781 C 420.382812 401.675781 420.054688 400.503906 419.882812 399.816406 C 422.289062 402.113281 422.945312 403.722656 421.773438 405.082031 C 421.257812 405.675781 420.257812 406.253906 419.132812 405.300781 Z M 414.148438 398.207031 C 415.054688 397.160156 416.617188 397.160156 417.835938 398.222656 C 418.914062 399.160156 419.429688 400.675781 418.335938 401.941406 C 416.992188 403.503906 415.382812 402.457031 414.710938 401.878906 C 413.179688 400.550781 413.414062 399.050781 414.148438 398.207031 Z M 410.179688 401.136719 "/>
<path style="fill:none;stroke-width:2;stroke-linecap:butt;stroke-linejoin:miter;stroke:rgb(0%,0%,0%);stroke-opacity:1;stroke-miterlimit:10;" d="M 178.5625 107.640625 C 178.5625 113.164062 174.085938 117.640625 168.5625 117.640625 C 163.039062 117.640625 158.5625 113.164062 158.5625 107.640625 C 158.5625 102.117188 163.039062 97.640625 168.5625 97.640625 C 174.085938 97.640625 178.5625 102.117188 178.5625 107.640625 " transform="matrix(1,0,0,1,250,250)"/>
<path style=" stroke:none;fill-rule:nonzero;fill:rgb(0%,0%,0%);fill-opacity:1;" d="M 438.179688 364.078125 L 437.242188 365.546875 L 447.742188 372.25 L 448.617188 370.890625 C 448.492188 369.96875 448.460938 368.609375 448.585938 367.296875 L 447.070312 366.3125 C 446.945312 367.28125 446.882812 368.734375 447.023438 369.734375 Z M 437.355469 370.855469 C 435.527344 369.777344 433.730469 370.527344 432.636719 372.230469 C 431.183594 374.511719 431.808594 376.964844 433.886719 378.277344 C 435.683594 379.433594 437.996094 379.464844 439.339844 377.355469 C 440.121094 376.136719 439.886719 375.042969 439.777344 374.527344 L 443.042969 376.886719 L 440.105469 381.480469 L 441.339844 382.261719 L 445.105469 376.371094 L 439.042969 372.105469 L 438.152344 373.496094 C 438.339844 373.714844 438.621094 373.996094 438.714844 374.527344 C 438.839844 375.058594 438.746094 375.683594 438.371094 376.292969 C 437.589844 377.511719 436.246094 377.746094 434.824219 376.824219 C 434.136719 376.386719 432.589844 375.042969 433.746094 373.214844 C 434.261719 372.433594 435.261719 371.777344 436.355469 372.417969 Z M 430.03125 376.839844 "/>
<path style="fill:none;stroke-width:2;stroke-linecap:butt;stroke-linejoin:miter;stroke:rgb(0%,0%,0%);stroke-opacity:1;stroke-miterlimit:10;" d="M 192.152344 82.589844 C 192.152344 88.113281 187.671875 92.589844 182.152344 92.589844 C 176.628906 92.589844 172.152344 88.113281 172.152344 82.589844 C 172.152344 77.066406 176.628906 72.589844 182.152344 72.589844 C 187.671875 72.589844 192.152344 77.066406 192.152344 82.589844 " transform="matrix(1,0,0,1,250,250)"/>
<path style=" stroke:none;fill-rule:nonzero;fill:rgb(0%,0%,0%);fill-opacity:1;" d="M 452.484375 336.171875 L 451.765625 337.75 L 463.109375 342.890625 L 463.78125 341.421875 C 463.515625 340.53125 463.328125 339.203125 463.25 337.890625 L 461.59375 337.140625 C 461.609375 338.109375 461.765625 339.546875 462.046875 340.515625 Z M 447.835938 346.425781 L 447.132812 347.988281 L 449.601562 349.097656 L 448.835938 350.769531 L 450.148438 351.378906 L 450.914062 349.707031 L 458.632812 353.207031 L 459.429688 351.441406 L 454.570312 343.300781 L 452.632812 342.410156 L 450.304688 347.535156 Z M 453.367188 344.269531 L 457.601562 350.910156 L 451.601562 348.191406 Z M 446.234375 349.964844 "/>
<path style="fill:none;stroke-width:2;stroke-linecap:butt;stroke-linejoin:miter;stroke:rgb(0%,0%,0%);stroke-opacity:1;stroke-miterlimit:10;" d="M 202.039062 55.863281 C 202.039062 61.386719 197.5625 65.863281 192.039062 65.863281 C 186.515625 65.863281 182.039062 61.386719 182.039062 55.863281 C 182.039062 50.339844 186.515625 45.863281 192.039062 45.863281 C 197.5625 45.863281 202.039062 50.339844 202.039062 55.863281 " transform="matrix(1,0,0,1,250,250)"/>
<path style=" stroke:none;fill-rule:nonzero;fill:rgb(0%,0%,0%);fill-opacity:1;" d="M 462.679688 306.527344 L 462.195312 308.183594 L 474.148438 311.667969 L 474.601562 310.121094 C 474.226562 309.277344 473.835938 307.980469 473.570312 306.683594 L 471.835938 306.167969 C 471.992188 307.136719 472.351562 308.542969 472.757812 309.464844 Z M 464.132812 312.996094 C 463.617188 312.871094 462.742188 312.636719 461.789062 313.089844 C 460.695312 313.589844 459.960938 314.746094 459.585938 316.011719 C 458.789062 318.777344 460.242188 320.699219 461.898438 321.183594 C 462.164062 321.261719 464.460938 321.933594 465.570312 319.464844 C 465.445312 321.449219 466.695312 322.386719 467.679688 322.683594 C 469.335938 323.152344 471.304688 322.324219 472.054688 319.699219 C 472.335938 318.746094 472.851562 315.839844 469.898438 314.886719 L 469.398438 316.636719 C 470.835938 317.230469 470.914062 318.464844 470.648438 319.355469 C 470.304688 320.542969 469.507812 321.308594 468.148438 320.917969 C 466.210938 320.355469 466.554688 318.277344 467.023438 317.105469 L 465.632812 316.699219 C 465.460938 317.339844 465.335938 317.746094 465.054688 318.355469 C 464.585938 319.167969 463.695312 319.824219 462.429688 319.464844 C 461.367188 319.152344 460.523438 318.136719 461.007812 316.464844 C 461.429688 314.980469 462.460938 314.480469 463.601562 314.824219 Z M 458.449219 321.058594 "/>
<path style="fill:none;stroke-width:2;stroke-linecap:butt;stroke-linejoin:miter;stroke:rgb(0%,0%,0%);stroke-opacity:1;stroke-miterlimit:10;" d="M 208.03125 28.003906 C 208.03125 33.527344 203.550781 38.003906 198.03125 38.003906 C 192.507812 38.003906 188.03125 33.527344 188.03125 28.003906 C 188.03125 22.480469 192.507812 18.003906 198.03125 18.003906 C 203.550781 18.003906 208.03125 22.480469 208.03125 28.003906 " transform="matrix(1,0,0,1,250,250)"/>
<path style=" stroke:none;fill-rule:nonzero;fill:rgb(0%,0%,0%);fill-opacity:1;" d="M 468.546875 275.722656 L 468.3125 277.441406 L 480.640625 279.191406 L 480.859375 277.597656 C 480.375 276.800781 479.796875 275.582031 479.34375 274.332031 L 477.5625 274.082031 C 477.84375 275.003906 478.40625 276.332031 478.9375 277.191406 Z M 467.691406 281.742188 L 466.582031 289.585938 L 467.988281 289.789062 L 468.832031 283.929688 L 470.566406 286.367188 C 470.894531 286.789062 472.285156 288.585938 472.660156 288.992188 C 474.175781 290.570312 474.785156 290.710938 475.550781 290.820312 C 478.207031 291.195312 479.425781 289.414062 479.691406 287.523438 C 479.800781 286.726562 479.800781 285.679688 479.207031 284.726562 C 478.410156 283.507812 477.253906 283.304688 476.628906 283.195312 L 476.363281 285.070312 C 476.832031 285.132812 478.535156 285.414062 478.253906 287.398438 C 478.003906 289.164062 476.566406 289.179688 475.957031 289.085938 C 475.300781 288.992188 474.769531 288.710938 473.894531 287.867188 C 473.222656 287.195312 472.613281 286.414062 472.035156 285.648438 L 469.316406 281.976562 Z M 466.433594 290.714844 "/>
<path style="fill:none;stroke-width:2;stroke-linecap:butt;stroke-linejoin:miter;stroke:rgb(0%,0%,0%);stroke-opacity:1;stroke-miterlimit:10;" d="M 210 -0.425781 C 210 5.097656 205.523438 9.574219 200 9.574219 C 194.476562 9.574219 190 5.097656 190 -0.425781 C 190 -5.949219 194.476562 -10.425781 200 -10.425781 C 205.523438 -10.425781 210 -5.949219 210 -0.425781 " transform="matrix(1,0,0,1,250,250)"/>
<path style=" stroke:none;fill-rule:nonzero;fill:rgb(0%,0%,0%);fill-opacity:1;" d="M 469.992188 244.398438 L 469.992188 246.132812 L 482.445312 246.101562 L 482.445312 244.492188 C 481.851562 243.789062 481.085938 242.648438 480.476562 241.492188 L 478.664062 241.492188 C 479.085938 242.367188 479.835938 243.617188 480.492188 244.382812 Z M 470.011719 254.40625 L 470.011719 256.140625 L 482.464844 256.109375 L 482.464844 254.5 C 481.871094 253.796875 481.105469 252.65625 480.496094 251.5 L 478.683594 251.5 C 479.105469 252.375 479.855469 253.625 480.511719 254.390625 Z M 470.019531 259.539062 "/>
<path style="fill:none;stroke-width:2;stroke-linecap:butt;stroke-linejoin:miter;stroke:rgb(0%,0%,0%);stroke-opacity:1;stroke-miterlimit:10;" d="M 207.910156 -28.847656 C 207.910156 -23.324219 203.433594 -18.847656 197.910156 -18.847656 C 192.386719 -18.847656 187.910156 -23.324219 187.910156 -28.847656 C 187.910156 -34.367188 192.386719 -38.847656 197.910156 -38.847656 C 203.433594 -38.847656 207.910156 -34.367188 207.910156 -28.847656 " transform="matrix(1,0,0,1,250,250)"/>
<path style=" stroke:none;fill-rule:nonzero;fill:rgb(0%,0%,0%);fill-opacity:1;" d="M 466.960938 213.195312 L 467.210938 214.914062 L 479.539062 213.117188 L 479.304688 211.523438 C 478.617188 210.914062 477.710938 209.882812 476.929688 208.820312 L 475.132812 209.085938 C 475.679688 209.882812 476.585938 211.007812 477.351562 211.679688 Z M 473.828125 218.175781 C 471.625 218.488281 470.484375 219.066406 469.734375 219.597656 C 468.734375 220.285156 467.921875 221.550781 468.171875 223.191406 C 468.25 223.722656 468.515625 224.753906 469.484375 225.519531 C 470.6875 226.472656 472.40625 226.816406 475.328125 226.394531 C 477.640625 226.066406 481.515625 225.035156 480.984375 221.363281 C 480.40625 217.441406 475.671875 217.910156 473.828125 218.175781 Z M 474.171875 219.863281 C 476.375 219.535156 479.25 219.425781 479.5625 221.582031 C 479.828125 223.441406 477.875 224.253906 474.90625 224.691406 C 472.703125 225.003906 469.9375 225.050781 469.640625 223.003906 C 469.359375 221.128906 471.4375 220.269531 474.171875 219.863281 Z M 469.144531 228.171875 "/>
<path style="fill:none;stroke-width:2;stroke-linecap:butt;stroke-linejoin:miter;stroke:rgb(0%,0%,0%);stroke-opacity:1;stroke-miterlimit:10;" d="M 201.800781 -56.679688 C 201.800781 -51.15625 197.324219 -46.679688 191.800781 -46.679688 C 186.277344 -46.679688 181.800781 -51.15625 181.800781 -56.679688 C 181.800781 -62.203125 186.277344 -66.679688 191.800781 -66.679688 C 197.324219 -66.679688 201.800781 -62.203125 201.800781 -56.679688 " transform="matrix(1,0,0,1,250,250)"/>
<path style=" stroke:none;fill-rule:nonzero;fill:rgb(0%,0%,0%);fill-opacity:1;" d="M 462.640625 182.804688 C 460.171875 183.617188 460.109375 185.679688 460.59375 187.320312 C 461.890625 191.695312 466.421875 190.367188 468.1875 189.851562 C 469.796875 189.367188 470.640625 188.976562 471.296875 188.554688 C 473.515625 187.164062 473.46875 185.132812 473.09375 183.835938 C 472.53125 181.976562 470.84375 180.351562 468.09375 181.164062 C 465.59375 181.898438 464.84375 184.007812 465.40625 185.914062 C 465.6875 186.835938 466.34375 187.867188 467.6875 188.148438 C 465.859375 188.773438 462.765625 189.664062 462 187.054688 C 461.59375 185.695312 462.140625 184.929688 463.171875 184.617188 Z M 469.875 187.289062 C 468.4375 187.710938 467.203125 187.164062 466.8125 185.820312 C 466.421875 184.523438 467.03125 183.304688 468.578125 182.851562 C 470 182.429688 471.375 182.820312 471.796875 184.210938 C 472.140625 185.398438 471.609375 186.789062 469.875 187.289062 Z M 462.398438 192.449219 "/>
<path style="fill:none;stroke-width:2;stroke-linecap:butt;stroke-linejoin:miter;stroke:rgb(0%,0%,0%);stroke-opacity:1;stroke-miterlimit:10;" d="M 191.796875 -83.363281 C 191.796875 -77.839844 187.320312 -73.363281 181.796875 -73.363281 C 176.273438 -73.363281 171.796875 -77.839844 171.796875 -83.363281 C 171.796875 -88.886719 176.273438 -93.363281 181.796875 -93.363281 C 187.320312 -93.363281 191.796875 -88.886719 191.796875 -83.363281 " transform="matrix(1,0,0,1,250,250)"/>
<path style=" stroke:none;fill-rule:nonzero;fill:rgb(0%,0%,0%);fill-opacity:1;" d="M 455.28125 154.125 C 454.890625 153.6875 454.453125 153.1875 453.65625 152.890625 C 452.859375 152.546875 451.953125 152.625 451.203125 152.96875 C 450.328125 153.375 449.65625 154.15625 449.375 155.015625 C 449 156.171875 449.328125 157.40625 449.765625 158.375 C 451.046875 161.1875 453.328125 161.453125 454.875 160.734375 C 457.0625 159.734375 456.75 157.71875 456.625 156.953125 C 457.625 158.421875 459.125 158.609375 460.234375 158.09375 C 461.984375 157.296875 462.640625 155.328125 461.546875 152.9375 C 460.1875 149.953125 457.78125 150.234375 456.78125 150.703125 C 455.640625 151.21875 454.9375 152.46875 455.28125 154.125 Z M 459.46875 156.53125 C 458.359375 157.03125 457.21875 156.453125 456.65625 155.203125 C 456.109375 154.03125 456.421875 152.765625 457.515625 152.265625 C 458.65625 151.75 459.796875 152.359375 460.359375 153.5625 C 460.984375 154.921875 460.515625 156.046875 459.46875 156.53125 Z M 452.09375 154.5625 C 453.296875 154.015625 454.640625 154.5 455.28125 155.890625 C 455.875 157.1875 455.484375 158.46875 454.21875 159.046875 C 453.375 159.4375 451.890625 159.59375 451.0625 157.78125 C 450.28125 156.09375 451.203125 154.96875 452.09375 154.5625 Z M 452.0625 162.847656 "/>
<path style="fill:none;stroke-width:2;stroke-linecap:butt;stroke-linejoin:miter;stroke:rgb(0%,0%,0%);stroke-opacity:1;stroke-miterlimit:10;" d="M 178.105469 -108.355469 C 178.105469 -102.832031 173.625 -98.355469 168.105469 -98.355469 C 162.582031 -98.355469 158.105469 -102.832031 158.105469 -108.355469 C 158.105469 -113.878906 162.582031 -118.355469 168.105469 -118.355469 C 173.625 -118.355469 178.105469 -113.878906 178.105469 -108.355469 " transform="matrix(1,0,0,1,250,250)"/>
<path style=" stroke:none;fill-rule:nonzero;fill:rgb(0%,0%,0%);fill-opacity:1;" d="M 441.765625 121.195312 L 445.234375 126.570312 L 433.421875 128.492188 L 434.515625 130.195312 L 446.1875 128.132812 L 447.46875 127.304688 L 443.015625 120.382812 Z M 437.625 135.011719 "/>
<path style="fill:none;stroke-width:2;stroke-linecap:butt;stroke-linejoin:miter;stroke:rgb(0%,0%,0%);stroke-opacity:1;stroke-miterlimit:10;" d="M 160.996094 -131.148438 C 160.996094 -125.625 156.519531 -121.148438 150.996094 -121.148438 C 145.476562 -121.148438 140.996094 -125.625 140.996094 -131.148438 C 140.996094 -136.671875 145.476562 -141.148438 150.996094 -141.148438 C 156.519531 -141.148438 160.996094 -136.671875 160.996094 -131.148438 " transform="matrix(1,0,0,1,250,250)"/>
<path style=" stroke:none;fill-rule:nonzero;fill:rgb(0%,0%,0%);fill-opacity:1;" d="M 426.019531 102.664062 C 426.347656 102.320312 426.957031 101.804688 427.082031 100.835938 C 427.160156 100.195312 427.097656 99.039062 426.035156 97.804688 C 423.441406 94.820312 419.753906 97.164062 417.707031 98.945312 C 416.519531 99.976562 415.300781 101.320312 414.972656 102.804688 C 414.769531 103.867188 415.191406 105.085938 415.972656 106.007812 C 417.378906 107.617188 419.832031 108.226562 422.035156 106.320312 C 424.019531 104.585938 423.894531 102.414062 422.566406 100.882812 C 421.378906 99.507812 420.175781 99.648438 419.488281 99.726562 C 422.082031 97.664062 423.785156 97.257812 424.957031 98.617188 C 425.488281 99.210938 425.894531 100.289062 424.800781 101.257812 Z M 417.050781 105.164062 C 416.144531 104.117188 416.378906 102.585938 417.613281 101.523438 C 418.675781 100.585938 420.253906 100.304688 421.347656 101.570312 C 422.707031 103.132812 421.441406 104.554688 420.753906 105.132812 C 419.222656 106.476562 417.785156 106.007812 417.050781 105.164062 Z M 419.378906 109.515625 "/>
<path style="fill:none;stroke-width:2;stroke-linecap:butt;stroke-linejoin:miter;stroke:rgb(0%,0%,0%);stroke-opacity:1;stroke-miterlimit:10;" d="M 140.824219 -151.277344 C 140.824219 -145.753906 136.347656 -141.277344 130.824219 -141.277344 C 125.304688 -141.277344 120.824219 -145.753906 120.824219 -151.277344 C 120.824219 -156.800781 125.304688 -161.277344 130.824219 -161.277344 C 136.347656 -161.277344 140.824219 -156.800781 140.824219 -151.277344 " transform="matrix(1,0,0,1,250,250)"/>
<path style=" stroke:none;fill-rule:nonzero;fill:rgb(0%,0%,0%);fill-opacity:1;" d="M 390.824219 98.722656 C 390.824219 104.246094 386.347656 108.722656 380.824219 108.722656 C 375.304688 108.722656 370.824219 104.246094 370.824219 98.722656 C 370.824219 93.199219 375.304688 88.722656 380.824219 88.722656 C 386.347656 88.722656 390.824219 93.199219 390.824219 98.722656 C 390.824219 104.246094 386.347656 108.722656 380.824219 108.722656 C 375.304688 108.722656 370.824219 104.246094 370.824219 98.722656 C 370.824219 93.199219 375.304688 88.722656 380.824219 88.722656 C 386.347656 88.722656 390.824219 93.199219 390.824219 98.722656 "/>
<path style=" stroke:none;fill-rule:nonzero;fill:rgb(0%,0%,0%);fill-opacity:1;" d="M 392.828125 78.761719 C 391.5 80.417969 391.984375 82.308594 393.5 83.636719 C 395.5625 85.402344 398.0625 85.121094 399.671875 83.277344 C 401.078125 81.652344 401.4375 79.371094 399.546875 77.746094 C 398.453125 76.792969 397.328125 76.855469 396.8125 76.902344 L 399.625 74.011719 L 403.75 77.574219 L 404.6875 76.464844 L 399.40625 71.886719 L 394.3125 77.277344 L 395.546875 78.355469 C 395.796875 78.183594 396.125 77.980469 396.65625 77.949219 C 397.203125 77.902344 397.8125 78.074219 398.359375 78.542969 C 399.453125 79.480469 399.484375 80.839844 398.375 82.121094 C 397.84375 82.730469 396.296875 84.089844 394.65625 82.667969 C 393.9375 82.058594 393.4375 80.949219 394.234375 79.964844 Z M 397.695312 86.871094 "/>
<path style="fill:none;stroke-width:2;stroke-linecap:butt;stroke-linejoin:miter;stroke:rgb(0%,0%,0%);stroke-opacity:1;stroke-miterlimit:10;" d="M 117.996094 -168.335938 C 117.996094 -162.8125 113.519531 -158.335938 107.996094 -158.335938 C 102.476562 -158.335938 97.996094 -162.8125 97.996094 -168.335938 C 97.996094 -173.855469 102.476562 -178.335938 107.996094 -178.335938 C 113.519531 -178.335938 117.996094 -173.855469 117.996094 -168.335938 " transform="matrix(1,0,0,1,250,250)"/>
<path style=" stroke:none;fill-rule:nonzero;fill:rgb(0%,0%,0%);fill-opacity:1;" d="M 369.742188 65.441406 L 371.195312 66.363281 L 372.648438 64.082031 L 374.179688 65.066406 L 374.976562 63.847656 L 373.445312 62.863281 L 378.007812 55.738281 L 376.367188 54.691406 L 367.617188 58.316406 L 366.460938 60.113281 L 371.195312 63.160156 Z M 368.414062 59.644531 L 375.570312 56.425781 L 372.023438 61.957031 Z M 373.007812 67.53125 "/>
<path style="fill:none;stroke-width:2;stroke-linecap:butt;stroke-linejoin:miter;stroke:rgb(0%,0%,0%);stroke-opacity:1;stroke-miterlimit:10;" d="M 92.976562 -181.972656 C 92.976562 -176.453125 88.5 -171.972656 82.976562 -171.972656 C 77.453125 -171.972656 72.976562 -176.453125 72.976562 -181.972656 C 72.976562 -187.496094 77.453125 -191.972656 82.976562 -191.972656 C 88.5 -191.972656 92.976562 -187.496094 92.976562 -181.972656 " transform="matrix(1,0,0,1,250,250)"/>
<path style=" stroke:none;fill-rule:nonzero;fill:rgb(0%,0%,0%);fill-opacity:1;" d="M 338.675781 45.109375 C 338.472656 45.609375 338.113281 46.421875 338.425781 47.453125 C 338.769531 48.59375 339.816406 49.5 341.003906 50.046875 C 343.628906 51.234375 345.722656 50.0625 346.441406 48.484375 C 346.550781 48.25 347.550781 46.078125 345.300781 44.640625 C 347.207031 45.03125 348.332031 43.9375 348.769531 43 C 349.472656 41.4375 348.925781 39.359375 346.457031 38.234375 C 345.535156 37.828125 342.753906 36.875 341.363281 39.671875 L 343.019531 40.4375 C 343.832031 39.078125 345.066406 39.1875 345.910156 39.578125 C 347.035156 40.09375 347.675781 41 347.082031 42.28125 C 346.253906 44.109375 344.253906 43.46875 343.160156 42.859375 L 342.566406 44.1875 C 343.144531 44.4375 343.550781 44.59375 344.097656 44.984375 C 344.863281 45.546875 345.378906 46.515625 344.832031 47.71875 C 344.378906 48.71875 343.238281 49.4375 341.644531 48.703125 C 340.253906 48.078125 339.910156 46.984375 340.410156 45.90625 Z M 345.828125 51.902344 "/>
<path style="fill:none;stroke-width:2;stroke-linecap:butt;stroke-linejoin:miter;stroke:rgb(0%,0%,0%);stroke-opacity:1;stroke-miterlimit:10;" d="M 66.273438 -191.921875 C 66.273438 -186.398438 61.796875 -181.921875 56.273438 -181.921875 C 50.75 -181.921875 46.273438 -186.398438 46.273438 -191.921875 C 46.273438 -197.441406 50.75 -201.921875 56.273438 -201.921875 C 61.796875 -201.921875 66.273438 -197.441406 66.273438 -191.921875 " transform="matrix(1,0,0,1,250,250)"/>
<path style=" stroke:none;fill-rule:nonzero;fill:rgb(0%,0%,0%);fill-opacity:1;" d="M 308.019531 37.746094 L 315.613281 39.980469 L 316.019531 38.621094 L 310.332031 36.949219 L 313.003906 35.574219 C 313.441406 35.324219 315.441406 34.199219 315.910156 33.871094 C 317.675781 32.605469 317.910156 32.027344 318.128906 31.277344 C 318.878906 28.714844 317.269531 27.246094 315.441406 26.714844 C 314.675781 26.480469 313.660156 26.339844 312.597656 26.808594 C 311.316406 27.402344 310.925781 28.527344 310.738281 29.121094 L 312.550781 29.652344 C 312.675781 29.214844 313.191406 27.558594 315.113281 28.121094 C 316.816406 28.621094 316.644531 30.042969 316.472656 30.636719 C 316.285156 31.277344 315.910156 31.777344 314.957031 32.511719 C 314.207031 33.058594 313.332031 33.558594 312.503906 34.027344 L 308.488281 36.167969 Z M 316.703125 40.296875 "/>
<path style="fill:none;stroke-width:2;stroke-linecap:butt;stroke-linejoin:miter;stroke:rgb(0%,0%,0%);stroke-opacity:1;stroke-miterlimit:10;" d="M 38.425781 -197.96875 C 38.425781 -192.445312 33.949219 -187.96875 28.425781 -187.96875 C 22.902344 -187.96875 18.425781 -192.445312 18.425781 -197.96875 C 18.425781 -203.492188 22.902344 -207.96875 28.425781 -207.96875 C 33.949219 -207.96875 38.425781 -203.492188 38.425781 -197.96875 " transform="matrix(1,0,0,1,250,250)"/>
<path style=" stroke:none;fill-rule:nonzero;fill:rgb(0%,0%,0%);fill-opacity:1;" d="M 288.425781 52.03125 C 288.425781 57.554688 283.949219 62.03125 278.425781 62.03125 C 272.902344 62.03125 268.425781 57.554688 268.425781 52.03125 C 268.425781 46.507812 272.902344 42.03125 278.425781 42.03125 C 283.949219 42.03125 288.425781 46.507812 288.425781 52.03125 C 288.425781 57.554688 283.949219 62.03125 278.425781 62.03125 C 272.902344 62.03125 268.425781 57.554688 268.425781 52.03125 C 268.425781 46.507812 272.902344 42.03125 278.425781 42.03125 C 283.949219 42.03125 288.425781 46.507812 288.425781 52.03125 "/>
<path style=" stroke:none;fill-rule:nonzero;fill:rgb(0%,0%,0%);fill-opacity:1;" d="M 281.140625 32.210938 L 282.859375 32.460938 L 284.625 20.132812 L 283.03125 19.898438 C 282.25 20.398438 281.015625 20.976562 279.78125 21.414062 L 279.515625 23.210938 C 280.4375 22.914062 281.78125 22.351562 282.640625 21.820312 Z M 286.21875 32.945312 "/>
<path style="fill:none;stroke-width:2;stroke-linecap:butt;stroke-linejoin:miter;stroke:rgb(0%,0%,0%);stroke-opacity:1;stroke-miterlimit:10;" d="M 10 -200 C 10 -194.476562 5.523438 -190 0 -190 C -5.523438 -190 -10 -194.476562 -10 -200 C -10 -205.523438 -5.523438 -210 0 -210 C 5.523438 -210 10 -205.523438 10 -200 " transform="matrix(1,0,0,1,250,250)"/>
<path style=" stroke:none;fill-rule:nonzero;fill:rgb(0%,0%,0%);fill-opacity:1;" d="M 260 50 C 260 55.523438 255.523438 60 250 60 C 244.476562 60 240 55.523438 240 50 C 240 44.476562 244.476562 40 250 40 C 255.523438 40 260 44.476562 260 50 C 260 55.523438 255.523438 60 250 60 C 244.476562 60 240 55.523438 240 50 C 240 44.476562 244.476562 40 250 40 C 255.523438 40 260 44.476562 260 50 "/>
<path style=" stroke:none;fill-rule:nonzero;fill:rgb(0%,0%,0%);fill-opacity:1;" d="M 245.792969 23.921875 C 245.792969 26.140625 246.183594 27.359375 246.605469 28.1875 C 247.136719 29.28125 248.277344 30.25 249.933594 30.25 C 250.480469 30.25 251.527344 30.125 252.417969 29.296875 C 253.542969 28.234375 254.136719 26.578125 254.136719 23.625 C 254.136719 21.28125 253.683594 17.296875 249.964844 17.296875 C 246.011719 17.296875 245.792969 22.0625 245.792969 23.921875 Z M 247.511719 23.828125 C 247.511719 21.59375 247.808594 18.734375 249.980469 18.734375 C 251.871094 18.734375 252.386719 20.796875 252.386719 23.796875 C 252.386719 26.015625 252.027344 28.765625 249.949219 28.765625 C 248.058594 28.765625 247.511719 26.59375 247.511719 23.828125 Z M 255.003906 30 "/>
<path style="fill:none;stroke-width:2;stroke-linecap:butt;stroke-linejoin:miter;stroke:rgb(0%,0%,0%);stroke-opacity:1;stroke-miterlimit:10;" d="M -18.425781 -197.96875 C -18.425781 -192.445312 -22.902344 -187.96875 -28.425781 -187.96875 C -33.949219 -187.96875 -38.425781 -192.445312 -38.425781 -197.96875 C -38.425781 -203.492188 -33.949219 -207.96875 -28.425781 -207.96875 C -22.902344 -207.96875 -18.425781 -203.492188 -18.425781 -197.96875 " transform="matrix(1,0,0,1,250,250)"/>
<path style=" stroke:none;fill-rule:nonzero;fill:rgb(0%,0%,0%);fill-opacity:1;" d="M 231.574219 52.03125 C 231.574219 57.554688 227.097656 62.03125 221.574219 62.03125 C 216.050781 62.03125 211.574219 57.554688 211.574219 52.03125 C 211.574219 46.507812 216.050781 42.03125 221.574219 42.03125 C 227.097656 42.03125 231.574219 46.507812 231.574219 52.03125 C 231.574219 57.554688 227.097656 62.03125 221.574219 62.03125 C 216.050781 62.03125 211.574219 57.554688 211.574219 52.03125 C 211.574219 46.507812 216.050781 42.03125 221.574219 42.03125 C 227.097656 42.03125 231.574219 46.507812 231.574219 52.03125 "/>
<path style=" stroke:none;fill-rule:nonzero;fill:rgb(0%,0%,0%);fill-opacity:1;" d="M 210.984375 29.261719 L 215.46875 28.621094 L 215.28125 27.261719 L 210.796875 27.902344 Z M 221.574219 31.832031 L 223.292969 31.582031 L 221.527344 19.253906 L 219.933594 19.488281 C 219.308594 20.175781 218.292969 21.066406 217.214844 21.847656 L 217.480469 23.644531 C 218.277344 23.097656 219.402344 22.191406 220.074219 21.441406 Z M 226.652344 31.097656 "/>
<path style="fill:none;stroke-width:2;stroke-linecap:butt;stroke-linejoin:miter;stroke:rgb(0%,0%,0%);stroke-opacity:1;stroke-miterlimit:10;" d="M -46.273438 -191.921875 C -46.273438 -186.398438 -50.75 -181.921875 -56.273438 -181.921875 C -61.796875 -181.921875 -66.273438 -186.398438 -66.273438 -191.921875 C -66.273438 -197.441406 -61.796875 -201.921875 -56.273438 -201.921875 C -50.75 -201.921875 -46.273438 -197.441406 -46.273438 -191.921875 " transform="matrix(1,0,0,1,250,250)"/>
<path style=" stroke:none;fill-rule:nonzero;fill:rgb(0%,0%,0%);fill-opacity:1;" d="M 180 37.03125 L 184.34375 35.765625 L 183.953125 34.453125 L 179.609375 35.71875 Z M 187.09375 39.1875 L 194.6875 36.953125 L 194.28125 35.59375 L 188.59375 37.265625 L 190.109375 34.671875 C 190.359375 34.203125 191.421875 32.203125 191.640625 31.65625 C 192.4375 29.640625 192.328125 29.03125 192.109375 28.28125 C 191.359375 25.71875 189.21875 25.34375 187.390625 25.875 C 186.625 26.109375 185.671875 26.53125 185.046875 27.5 C 184.265625 28.6875 184.5625 29.84375 184.71875 30.4375 L 186.53125 29.90625 C 186.40625 29.46875 185.953125 27.8125 187.875 27.25 C 189.578125 26.75 190.1875 28.046875 190.359375 28.640625 C 190.546875 29.28125 190.515625 29.875 190.09375 31.015625 C 189.78125 31.90625 189.3125 32.78125 188.859375 33.625 L 186.625 37.609375 Z M 195.777344 36.636719 "/>
<path style="fill:none;stroke-width:2;stroke-linecap:butt;stroke-linejoin:miter;stroke:rgb(0%,0%,0%);stroke-opacity:1;stroke-miterlimit:10;" d="M -72.976562 -181.972656 C -72.976562 -176.453125 -77.453125 -171.972656 -82.976562 -171.972656 C -88.5 -171.972656 -92.976562 -176.453125 -92.976562 -181.972656 C -92.976562 -187.496094 -88.5 -191.972656 -82.976562 -191.972656 C -77.453125 -191.972656 -72.976562 -187.496094 -72.976562 -181.972656 " transform="matrix(1,0,0,1,250,250)"/>
<path style=" stroke:none;fill-rule:nonzero;fill:rgb(0%,0%,0%);fill-opacity:1;" d="M 150.460938 49.148438 L 154.585938 47.273438 L 154.007812 46.023438 L 149.882812 47.898438 Z M 156.195312 47.457031 C 156.429688 47.925781 156.820312 48.738281 157.789062 49.175781 C 158.882812 49.660156 160.242188 49.472656 161.429688 48.925781 C 164.054688 47.738281 164.554688 45.378906 163.835938 43.800781 C 163.726562 43.566406 162.726562 41.394531 160.164062 42.144531 C 161.726562 40.941406 161.632812 39.378906 161.195312 38.441406 C 160.492188 36.878906 158.570312 35.957031 156.101562 37.082031 C 155.179688 37.488281 152.648438 38.972656 153.851562 41.863281 L 155.507812 41.097656 C 155.007812 39.613281 155.898438 38.753906 156.742188 38.363281 C 157.867188 37.847656 158.976562 37.972656 159.570312 39.253906 C 160.398438 41.082031 158.617188 42.160156 157.429688 42.582031 L 158.023438 43.910156 C 158.601562 43.628906 159.007812 43.441406 159.648438 43.269531 C 160.570312 43.082031 161.648438 43.332031 162.195312 44.535156 C 162.648438 45.535156 162.445312 46.847656 160.851562 47.582031 C 159.460938 48.207031 158.398438 47.769531 157.929688 46.660156 Z M 166.003906 46.507812 "/>
<path style="fill:none;stroke-width:2;stroke-linecap:butt;stroke-linejoin:miter;stroke:rgb(0%,0%,0%);stroke-opacity:1;stroke-miterlimit:10;" d="M -97.996094 -168.335938 C -97.996094 -162.8125 -102.476562 -158.335938 -107.996094 -158.335938 C -113.519531 -158.335938 -117.996094 -162.8125 -117.996094 -168.335938 C -117.996094 -173.855469 -113.519531 -178.335938 -107.996094 -178.335938 C -102.476562 -178.335938 -97.996094 -173.855469 -97.996094 -168.335938 " transform="matrix(1,0,0,1,250,250)"/>
<path style=" stroke:none;fill-rule:nonzero;fill:rgb(0%,0%,0%);fill-opacity:1;" d="M 122.90625 65.339844 L 126.71875 62.886719 L 125.984375 61.730469 L 122.171875 64.183594 Z M 134.671875 62.601562 L 136.125 61.679688 L 134.671875 59.398438 L 136.203125 58.414062 L 135.40625 57.195312 L 133.875 58.179688 L 129.3125 51.054688 L 127.671875 52.101562 L 127.328125 61.570312 L 128.484375 63.367188 L 133.21875 60.320312 Z M 128.84375 61.398438 L 128.90625 53.554688 L 132.453125 59.085938 Z M 137.9375 60.511719 "/>
<path style="fill:none;stroke-width:2;stroke-linecap:butt;stroke-linejoin:miter;stroke:rgb(0%,0%,0%);stroke-opacity:1;stroke-miterlimit:10;" d="M -120.824219 -151.277344 C -120.824219 -145.753906 -125.304688 -141.277344 -130.824219 -141.277344 C -136.347656 -141.277344 -140.824219 -145.753906 -140.824219 -151.277344 C -140.824219 -156.800781 -136.347656 -161.277344 -130.824219 -161.277344 C -125.304688 -161.277344 -120.824219 -156.800781 -120.824219 -151.277344 " transform="matrix(1,0,0,1,250,250)"/>
<path style=" stroke:none;fill-rule:nonzero;fill:rgb(0%,0%,0%);fill-opacity:1;" d="M 97.960938 85.28125 L 101.398438 82.3125 L 100.492188 81.28125 L 97.054688 84.25 Z M 103.402344 82 C 104.855469 83.5625 106.808594 83.359375 108.324219 82.03125 C 110.386719 80.265625 110.480469 77.734375 108.871094 75.890625 C 107.464844 74.265625 105.261719 73.578125 103.371094 75.203125 C 102.277344 76.15625 102.183594 77.28125 102.136719 77.796875 L 99.667969 74.59375 L 103.792969 71.03125 L 102.855469 69.921875 L 97.574219 74.5 L 102.167969 80.328125 L 103.402344 79.25 C 103.277344 78.984375 103.105469 78.625 103.167969 78.09375 C 103.183594 77.546875 103.449219 76.96875 103.996094 76.5 C 105.089844 75.5625 106.433594 75.703125 107.542969 76.984375 C 108.074219 77.59375 109.183594 79.359375 107.542969 80.78125 C 106.824219 81.390625 105.667969 81.71875 104.808594 80.796875 Z M 112.144531 78.359375 "/>
<path style="fill:none;stroke-width:2;stroke-linecap:butt;stroke-linejoin:miter;stroke:rgb(0%,0%,0%);stroke-opacity:1;stroke-miterlimit:10;" d="M -140.996094 -131.148438 C -140.996094 -125.625 -145.476562 -121.148438 -150.996094 -121.148438 C -156.519531 -121.148438 -160.996094 -125.625 -160.996094 -131.148438 C -160.996094 -136.671875 -156.519531 -141.148438 -150.996094 -141.148438 C -145.476562 -141.148438 -140.996094 -136.671875 -140.996094 -131.148438 " transform="matrix(1,0,0,1,250,250)"/>
<path style=" stroke:none;fill-rule:nonzero;fill:rgb(0%,0%,0%);fill-opacity:1;" d="M 76.078125 108.558594 L 79.0625 105.136719 L 78.03125 104.230469 L 75.046875 107.652344 Z M 81.445312 94.082031 C 81.054688 93.800781 80.445312 93.285156 79.476562 93.285156 C 78.835938 93.300781 77.679688 93.519531 76.617188 94.753906 C 74.023438 97.738281 76.867188 101.050781 78.914062 102.832031 C 80.101562 103.863281 81.601562 104.894531 83.117188 105.003906 C 84.195312 105.066406 85.367188 104.472656 86.148438 103.550781 C 87.554688 101.941406 87.820312 99.425781 85.617188 97.519531 C 83.632812 95.785156 81.476562 96.207031 80.148438 97.738281 C 78.960938 99.113281 79.257812 100.285156 79.445312 100.957031 C 77.039062 98.675781 76.398438 97.050781 77.570312 95.691406 C 78.101562 95.097656 79.101562 94.550781 80.226562 95.488281 Z M 85.164062 102.613281 C 84.257812 103.660156 82.710938 103.628906 81.476562 102.566406 C 80.414062 101.628906 79.898438 100.128906 80.992188 98.863281 C 82.351562 97.300781 83.929688 98.347656 84.617188 98.925781 C 86.148438 100.269531 85.898438 101.769531 85.164062 102.613281 Z M 89.148438 99.695312 "/>
<path style="fill:none;stroke-width:2;stroke-linecap:butt;stroke-linejoin:miter;stroke:rgb(0%,0%,0%);stroke-opacity:1;stroke-miterlimit:10;" d="M -158.105469 -108.355469 C -158.105469 -102.832031 -162.582031 -98.355469 -168.105469 -98.355469 C -173.625 -98.355469 -178.105469 -102.832031 -178.105469 -108.355469 C -178.105469 -113.878906 -173.625 -118.355469 -168.105469 -118.355469 C -162.582031 -118.355469 -158.105469 -113.878906 -158.105469 -108.355469 " transform="matrix(1,0,0,1,250,250)"/>
<path style=" stroke:none;fill-rule:nonzero;fill:rgb(0%,0%,0%);fill-opacity:1;" d="M 57.75 134.722656 L 60.203125 130.910156 L 59.046875 130.160156 L 56.59375 133.972656 Z M 55.121094 126.027344 L 58.589844 120.652344 L 65.214844 130.605469 L 66.308594 128.902344 L 59.605469 119.121094 L 58.324219 118.292969 L 53.871094 125.214844 Z M 69.417969 124.085938 "/>
<path style="fill:none;stroke-width:2;stroke-linecap:butt;stroke-linejoin:miter;stroke:rgb(0%,0%,0%);stroke-opacity:1;stroke-miterlimit:10;" d="M -171.796875 -83.363281 C -171.796875 -77.839844 -176.273438 -73.363281 -181.796875 -73.363281 C -187.320312 -73.363281 -191.796875 -77.839844 -191.796875 -83.363281 C -191.796875 -88.886719 -187.320312 -93.363281 -181.796875 -93.363281 C -176.273438 -93.363281 -171.796875 -88.886719 -171.796875 -83.363281 " transform="matrix(1,0,0,1,250,250)"/>
<path style=" stroke:none;fill-rule:nonzero;fill:rgb(0%,0%,0%);fill-opacity:1;" d="M 43.328125 163.195312 L 45.21875 159.085938 L 43.96875 158.507812 L 42.078125 162.617188 Z M 44.640625 154.277344 C 44.5625 154.871094 44.46875 155.527344 44.765625 156.292969 C 45.03125 157.136719 45.6875 157.777344 46.4375 158.121094 C 47.3125 158.527344 48.328125 158.527344 49.171875 158.167969 C 50.296875 157.699219 51.03125 156.652344 51.46875 155.683594 C 52.75 152.871094 51.46875 150.980469 49.921875 150.261719 C 47.734375 149.261719 46.421875 150.839844 45.921875 151.417969 C 46.359375 149.699219 45.546875 148.449219 44.4375 147.933594 C 42.6875 147.136719 40.75 147.917969 39.65625 150.308594 C 38.296875 153.292969 40.078125 154.917969 41.078125 155.386719 C 42.21875 155.902344 43.609375 155.621094 44.640625 154.277344 Z M 43.734375 149.527344 C 44.84375 150.027344 45.140625 151.292969 44.578125 152.542969 C 44.03125 153.714844 42.875 154.292969 41.78125 153.792969 C 40.640625 153.277344 40.34375 152.011719 40.90625 150.808594 C 41.53125 149.449219 42.6875 149.042969 43.734375 149.527344 Z M 47.046875 156.402344 C 45.84375 155.855469 45.34375 154.527344 45.984375 153.136719 C 46.578125 151.839844 47.8125 151.277344 49.078125 151.855469 C 49.921875 152.246094 51 153.277344 50.171875 155.089844 C 49.390625 156.777344 47.9375 156.808594 47.046875 156.402344 Z M 53.359375 151.023438 "/>
<path style="fill:none;stroke-width:2;stroke-linecap:butt;stroke-linejoin:miter;stroke:rgb(0%,0%,0%);stroke-opacity:1;stroke-miterlimit:10;" d="M -181.800781 -56.679688 C -181.800781 -51.15625 -186.277344 -46.679688 -191.800781 -46.679688 C -197.324219 -46.679688 -201.800781 -51.15625 -201.800781 -56.679688 C -201.800781 -62.203125 -197.324219 -66.679688 -191.800781 -66.679688 C -186.277344 -66.679688 -181.800781 -62.203125 -181.800781 -56.679688 " transform="matrix(1,0,0,1,250,250)"/>
<path style=" stroke:none;fill-rule:nonzero;fill:rgb(0%,0%,0%);fill-opacity:1;" d="M 33.097656 193.464844 L 34.378906 189.121094 L 33.050781 188.730469 L 31.769531 193.074219 Z M 35.84375 187.933594 C 38.34375 188.589844 39.53125 186.902344 40.015625 185.261719 C 41.3125 180.886719 36.78125 179.527344 35.015625 179.011719 C 33.40625 178.527344 32.5 178.417969 31.71875 178.402344 C 29.09375 178.386719 28.015625 180.105469 27.640625 181.402344 C 27.078125 183.261719 27.609375 185.542969 30.359375 186.355469 C 32.859375 187.089844 34.640625 185.730469 35.203125 183.824219 C 35.484375 182.902344 35.484375 181.683594 34.515625 180.714844 C 36.375 181.183594 39.46875 182.105469 38.703125 184.714844 C 38.296875 186.074219 37.40625 186.433594 36.375 186.121094 Z M 32.203125 180.230469 C 33.640625 180.652344 34.375 181.792969 33.984375 183.136719 C 33.59375 184.433594 32.421875 185.121094 30.875 184.667969 C 29.453125 184.246094 28.515625 183.167969 28.9375 181.777344 C 29.28125 180.589844 30.46875 179.730469 32.203125 180.230469 Z M 41.289062 179.976562 "/>
<path style="fill:none;stroke-width:2;stroke-linecap:butt;stroke-linejoin:miter;stroke:rgb(0%,0%,0%);stroke-opacity:1;stroke-miterlimit:10;" d="M -187.910156 -28.847656 C -187.910156 -23.324219 -192.386719 -18.847656 -197.910156 -18.847656 C -203.433594 -18.847656 -207.910156 -23.324219 -207.910156 -28.847656 C -207.910156 -34.367188 -203.433594 -38.847656 -197.910156 -38.847656 C -192.386719 -38.847656 -187.910156 -34.367188 -187.910156 -28.847656 " transform="matrix(1,0,0,1,250,250)"/>
<path style=" stroke:none;fill-rule:nonzero;fill:rgb(0%,0%,0%);fill-opacity:1;" d="M 26.535156 229.824219 L 27.191406 225.339844 L 25.832031 225.136719 L 25.175781 229.621094 Z M 31.992188 220.378906 L 32.242188 218.660156 L 19.914062 216.863281 L 19.679688 218.457031 C 20.179688 219.253906 20.742188 220.472656 21.179688 221.722656 L 22.976562 221.988281 C 22.679688 221.066406 22.148438 219.722656 21.601562 218.863281 Z M 26.828125 213.644531 C 29.03125 213.957031 30.296875 213.753906 31.171875 213.441406 C 32.328125 213.066406 33.453125 212.082031 33.703125 210.441406 C 33.78125 209.910156 33.796875 208.847656 33.109375 207.863281 C 32.21875 206.597656 30.65625 205.753906 27.734375 205.332031 C 25.421875 205.003906 21.421875 204.878906 20.890625 208.550781 C 20.3125 212.472656 24.984375 213.378906 26.828125 213.644531 Z M 26.984375 211.925781 C 24.78125 211.597656 22 210.894531 22.3125 208.738281 C 22.578125 206.878906 24.6875 206.660156 27.65625 207.097656 C 29.859375 207.410156 32.53125 208.175781 32.234375 210.222656 C 31.953125 212.097656 29.71875 212.332031 26.984375 211.925781 Z M 34.175781 205.398438 "/>
<path style="fill:none;stroke-width:2;stroke-linecap:butt;stroke-linejoin:miter;stroke:rgb(0%,0%,0%);stroke-opacity:1;stroke-miterlimit:10;" d="M -190 -0.425781 C -190 5.097656 -194.476562 9.574219 -200 9.574219 C -205.523438 9.574219 -210 5.097656 -210 -0.425781 C -210 -5.949219 -205.523438 -10.425781 -200 -10.425781 C -194.476562 -10.425781 -190 -5.949219 -190 -0.425781 " transform="matrix(1,0,0,1,250,250)"/>
<path style=" stroke:none;fill-rule:nonzero;fill:rgb(0%,0%,0%);fill-opacity:1;" d="M 25.925781 261.769531 L 25.941406 257.238281 L 24.566406 257.238281 L 24.550781 261.769531 Z M 30 251.667969 L 30 249.933594 L 17.546875 249.902344 L 17.546875 251.511719 C 18.140625 252.214844 18.875 253.355469 19.484375 254.542969 L 21.296875 254.542969 C 20.875 253.667969 20.15625 252.417969 19.5 251.652344 Z M 30.023438 241.660156 L 30.023438 239.925781 L 17.570312 239.894531 L 17.570312 241.503906 C 18.164062 242.207031 18.898438 243.347656 19.507812 244.535156 L 21.320312 244.535156 C 20.898438 243.660156 20.179688 242.410156 19.523438 241.644531 Z M 30.027344 236.523438 "/>
<path style="fill:none;stroke-width:2;stroke-linecap:butt;stroke-linejoin:miter;stroke:rgb(0%,0%,0%);stroke-opacity:1;stroke-miterlimit:10;" d="M -188.03125 28.003906 C -188.03125 33.527344 -192.507812 38.003906 -198.03125 38.003906 C -203.550781 38.003906 -208.03125 33.527344 -208.03125 28.003906 C -208.03125 22.480469 -203.550781 18.003906 -198.03125 18.003906 C -192.507812 18.003906 -188.03125 22.480469 -188.03125 28.003906 " transform="matrix(1,0,0,1,250,250)"/>
<path style=" stroke:none;fill-rule:nonzero;fill:rgb(0%,0%,0%);fill-opacity:1;" d="M 29.878906 293.492188 L 29.253906 289.007812 L 27.878906 289.210938 L 28.503906 293.695312 Z M 32.460938 282.917969 L 32.226562 281.199219 L 19.898438 282.949219 L 20.117188 284.542969 C 20.789062 285.152344 21.710938 286.183594 22.476562 287.246094 L 24.257812 286.996094 C 23.726562 286.199219 22.820312 285.058594 22.070312 284.386719 Z M 31.605469 276.898438 L 30.496094 269.054688 L 29.089844 269.257812 L 29.933594 275.117188 L 27.574219 273.242188 C 27.152344 272.945312 25.324219 271.585938 24.824219 271.304688 C 22.933594 270.226562 22.324219 270.242188 21.558594 270.351562 C 18.902344 270.726562 18.214844 272.789062 18.480469 274.679688 C 18.589844 275.476562 18.902344 276.460938 19.746094 277.226562 C 20.824219 278.164062 22.011719 278.054688 22.636719 277.976562 L 22.371094 276.101562 C 21.902344 276.164062 20.199219 276.382812 19.917969 274.398438 C 19.667969 272.632812 21.042969 272.210938 21.652344 272.117188 C 22.308594 272.023438 22.902344 272.148438 23.964844 272.742188 C 24.792969 273.195312 25.589844 273.757812 26.355469 274.335938 L 29.980469 277.132812 Z M 30.347656 267.925781 "/>
<path style="fill:none;stroke-width:2;stroke-linecap:butt;stroke-linejoin:miter;stroke:rgb(0%,0%,0%);stroke-opacity:1;stroke-miterlimit:10;" d="M -182.039062 55.863281 C -182.039062 61.386719 -186.515625 65.863281 -192.039062 65.863281 C -197.5625 65.863281 -202.039062 61.386719 -202.039062 55.863281 C -202.039062 50.339844 -197.5625 45.863281 -192.039062 45.863281 C -186.515625 45.863281 -182.039062 50.339844 -182.039062 55.863281 " transform="matrix(1,0,0,1,250,250)"/>
<path style=" stroke:none;fill-rule:nonzero;fill:rgb(0%,0%,0%);fill-opacity:1;" d="M 38.296875 324.34375 L 37.03125 319.984375 L 35.71875 320.375 L 36.984375 324.734375 Z M 39.355469 313.496094 L 38.871094 311.839844 L 26.917969 315.324219 L 27.371094 316.871094 C 28.121094 317.371094 29.167969 318.261719 30.089844 319.214844 L 31.824219 318.699219 C 31.167969 317.980469 30.121094 316.980469 29.277344 316.433594 Z M 34.65625 308.808594 C 35.140625 308.652344 36.015625 308.386719 36.59375 307.496094 C 37.21875 306.464844 37.234375 305.089844 36.859375 303.824219 C 36.0625 301.058594 33.796875 300.230469 32.140625 300.714844 C 31.875 300.792969 29.578125 301.464844 29.96875 304.121094 C 29 302.386719 27.4375 302.261719 26.453125 302.558594 C 24.796875 303.027344 23.609375 304.792969 24.359375 307.417969 C 24.640625 308.371094 25.75 311.089844 28.765625 310.324219 L 28.265625 308.574219 C 26.734375 308.855469 26 307.839844 25.734375 306.949219 C 25.390625 305.761719 25.65625 304.683594 27.015625 304.292969 C 28.953125 303.730469 29.765625 305.652344 30.015625 306.886719 L 31.40625 306.480469 C 31.203125 305.871094 31.078125 305.464844 31.015625 304.792969 C 30.953125 303.855469 31.34375 302.824219 32.609375 302.464844 C 33.671875 302.152344 34.953125 302.542969 35.4375 304.214844 C 35.859375 305.699219 35.265625 306.667969 34.125 306.980469 Z M 35.125 298.964844 "/>
<path style="fill:none;stroke-width:2;stroke-linecap:butt;stroke-linejoin:miter;stroke:rgb(0%,0%,0%);stroke-opacity:1;stroke-miterlimit:10;" d="M -172.152344 82.589844 C -172.152344 88.113281 -176.628906 92.589844 -182.152344 92.589844 C -187.671875 92.589844 -192.152344 88.113281 -192.152344 82.589844 C -192.152344 77.066406 -187.671875 72.589844 -182.152344 72.589844 C -176.628906 72.589844 -172.152344 77.066406 -172.152344 82.589844 " transform="matrix(1,0,0,1,250,250)"/>
<path style=" stroke:none;fill-rule:nonzero;fill:rgb(0%,0%,0%);fill-opacity:1;" d="M 51.003906 353.675781 L 49.128906 349.550781 L 47.878906 350.113281 L 49.753906 354.238281 Z M 50.511719 342.792969 L 49.792969 341.214844 L 38.449219 346.355469 L 39.121094 347.824219 C 39.949219 348.214844 41.105469 348.949219 42.152344 349.761719 L 43.808594 349.011719 C 43.042969 348.386719 41.855469 347.542969 40.949219 347.136719 Z M 45.863281 332.539062 L 45.160156 330.976562 L 42.691406 332.085938 L 41.925781 330.414062 L 40.613281 331.023438 L 41.378906 332.695312 L 33.660156 336.195312 L 34.457031 337.960938 L 43.785156 339.664062 L 45.722656 338.773438 L 43.394531 333.648438 Z M 43.832031 338.132812 L 36.066406 336.929688 L 42.066406 334.210938 Z M 44.261719 329.003906 "/>
<path style="fill:none;stroke-width:2;stroke-linecap:butt;stroke-linejoin:miter;stroke:rgb(0%,0%,0%);stroke-opacity:1;stroke-miterlimit:10;" d="M -158.5625 107.640625 C -158.5625 113.164062 -163.039062 117.640625 -168.5625 117.640625 C -174.085938 117.640625 -178.5625 113.164062 -178.5625 107.640625 C -178.5625 102.117188 -174.085938 97.640625 -168.5625 97.640625 C -163.039062 97.640625 -158.5625 102.117188 -158.5625 107.640625 " transform="matrix(1,0,0,1,250,250)"/>
<path style=" stroke:none;fill-rule:nonzero;fill:rgb(0%,0%,0%);fill-opacity:1;" d="M 67.765625 380.910156 L 65.328125 377.082031 L 64.171875 377.832031 L 66.609375 381.660156 Z M 65.726562 370.203125 L 64.789062 368.734375 L 54.289062 375.4375 L 55.164062 376.796875 C 56.039062 377.0625 57.289062 377.640625 58.445312 378.296875 L 59.960938 377.3125 C 59.148438 376.8125 57.835938 376.140625 56.882812 375.859375 Z M 59.933594 366.609375 C 61.667969 365.40625 61.746094 363.4375 60.652344 361.734375 C 59.199219 359.453125 56.730469 359 54.652344 360.3125 C 52.855469 361.46875 51.855469 363.5625 53.199219 365.671875 C 53.980469 366.890625 55.058594 367.140625 55.574219 367.25 L 52.058594 369.234375 L 49.121094 364.640625 L 47.886719 365.421875 L 51.652344 371.3125 L 58.089844 367.609375 L 57.199219 366.21875 C 56.917969 366.3125 56.542969 366.40625 56.011719 366.28125 C 55.480469 366.1875 54.949219 365.84375 54.574219 365.234375 C 53.792969 364.015625 54.136719 362.71875 55.558594 361.796875 C 56.246094 361.359375 58.136719 360.515625 59.292969 362.34375 C 59.808594 363.125 59.964844 364.3125 58.933594 365.046875 Z M 57.578125 357.441406 "/>
<path style="fill:none;stroke-width:2;stroke-linecap:butt;stroke-linejoin:miter;stroke:rgb(0%,0%,0%);stroke-opacity:1;stroke-miterlimit:10;" d="M -141.554688 130.503906 C -141.554688 136.027344 -146.03125 140.503906 -151.554688 140.503906 C -157.078125 140.503906 -161.554688 136.027344 -161.554688 130.503906 C -161.554688 124.980469 -157.078125 120.503906 -151.554688 120.503906 C -146.03125 120.503906 -141.554688 124.980469 -141.554688 130.503906 " transform="matrix(1,0,0,1,250,250)"/>
<path style=" stroke:none;fill-rule:nonzero;fill:rgb(0%,0%,0%);fill-opacity:1;" d="M 88.230469 405.488281 L 85.261719 402.050781 L 84.214844 402.941406 L 87.183594 406.378906 Z M 84.679688 395.179688 L 83.554688 393.851562 L 74.117188 401.976562 L 75.164062 403.210938 C 76.085938 403.351562 77.382812 403.726562 78.617188 404.210938 L 79.992188 403.039062 C 79.101562 402.632812 77.726562 402.179688 76.726562 402.023438 Z M 68.132812 390.519531 C 67.804688 390.863281 67.195312 391.394531 67.054688 392.347656 C 66.992188 392.972656 67.039062 394.144531 68.101562 395.378906 C 70.679688 398.363281 74.382812 396.050781 76.445312 394.285156 C 77.632812 393.253906 78.851562 391.925781 79.195312 390.441406 C 79.382812 389.363281 78.976562 388.144531 78.195312 387.222656 C 76.804688 385.613281 74.335938 384.988281 72.132812 386.878906 C 70.132812 388.597656 70.242188 390.785156 71.570312 392.316406 C 72.757812 393.691406 73.960938 393.582031 74.664062 393.488281 C 72.039062 395.535156 70.351562 395.925781 69.179688 394.566406 C 68.664062 393.972656 68.257812 392.894531 69.351562 391.941406 Z M 77.117188 388.066406 C 78.023438 389.113281 77.773438 390.644531 76.554688 391.707031 C 75.476562 392.644531 73.898438 392.910156 72.804688 391.644531 C 71.460938 390.082031 72.726562 388.660156 73.398438 388.082031 C 74.929688 386.753906 76.382812 387.222656 77.117188 388.066406 Z M 74.804688 383.699219 "/>
<path style="fill:none;stroke-width:2;stroke-linecap:butt;stroke-linejoin:miter;stroke:rgb(0%,0%,0%);stroke-opacity:1;stroke-miterlimit:10;" d="M -121.46875 150.71875 C -121.46875 156.242188 -125.945312 160.71875 -131.46875 160.71875 C -136.992188 160.71875 -141.46875 156.242188 -141.46875 150.71875 C -141.46875 145.195312 -136.992188 140.71875 -131.46875 140.71875 C -125.945312 140.71875 -121.46875 145.195312 -121.46875 150.71875 " transform="matrix(1,0,0,1,250,250)"/>
<path style=" stroke:none;fill-rule:nonzero;fill:rgb(0%,0%,0%);fill-opacity:1;" d="M 111.964844 426.886719 L 108.542969 423.917969 L 107.636719 424.949219 L 111.058594 427.917969 Z M 106.996094 417.195312 L 105.683594 416.054688 L 97.496094 425.445312 L 98.714844 426.507812 C 99.636719 426.507812 100.996094 426.695312 102.261719 427.007812 L 103.464844 425.648438 C 102.527344 425.382812 101.105469 425.117188 100.089844 425.101562 Z M 95.453125 421.679688 L 90.625 417.460938 L 101.421875 412.335938 L 99.90625 411.007812 L 89.265625 416.242188 L 88.265625 417.382812 L 94.46875 422.804688 Z M 95.582031 407.242188 "/>
<path style="fill:none;stroke-width:2;stroke-linecap:butt;stroke-linejoin:miter;stroke:rgb(0%,0%,0%);stroke-opacity:1;stroke-miterlimit:10;" d="M -98.714844 167.875 C -98.714844 173.394531 -103.191406 177.875 -108.714844 177.875 C -114.238281 177.875 -118.714844 173.394531 -118.714844 167.875 C -118.714844 162.351562 -114.238281 157.875 -108.714844 157.875 C -103.191406 157.875 -98.714844 162.351562 -98.714844 167.875 " transform="matrix(1,0,0,1,250,250)"/>
<path style=" stroke:none;fill-rule:nonzero;fill:rgb(0%,0%,0%);fill-opacity:1;" d="M 138.503906 444.714844 L 134.691406 442.246094 L 133.941406 443.402344 L 137.753906 445.871094 Z M 132.207031 435.816406 L 130.753906 434.878906 L 123.988281 445.332031 L 125.332031 446.207031 C 126.238281 446.097656 127.613281 446.082031 128.925781 446.207031 L 129.910156 444.691406 C 128.941406 444.566406 127.503906 444.503906 126.503906 444.628906 Z M 121.464844 436.6875 C 122.027344 436.84375 122.667969 437.03125 123.496094 436.84375 C 124.355469 436.703125 125.074219 436.15625 125.527344 435.46875 C 126.042969 434.671875 126.199219 433.640625 125.964844 432.765625 C 125.667969 431.59375 124.730469 430.71875 123.839844 430.140625 C 121.246094 428.453125 119.183594 429.453125 118.246094 430.890625 C 116.949219 432.90625 118.308594 434.421875 118.824219 435 C 117.183594 434.3125 115.808594 434.96875 115.152344 435.984375 C 114.105469 437.609375 114.605469 439.609375 116.808594 441.046875 C 119.558594 442.828125 121.433594 441.3125 122.042969 440.375 C 122.714844 439.328125 122.652344 437.90625 121.464844 436.6875 Z M 116.636719 436.90625 C 117.292969 435.875 118.574219 435.75 119.730469 436.5 C 120.824219 437.203125 121.230469 438.453125 120.574219 439.46875 C 119.886719 440.515625 118.605469 440.609375 117.496094 439.890625 C 116.230469 439.0625 116.011719 437.859375 116.636719 436.90625 Z M 123.933594 434.609375 C 123.214844 435.734375 121.808594 436.03125 120.527344 435.203125 C 119.324219 434.421875 118.949219 433.109375 119.714844 431.953125 C 120.214844 431.15625 121.386719 430.25 123.058594 431.34375 C 124.621094 432.34375 124.449219 433.796875 123.933594 434.609375 Z M 119.5 427.59375 "/>
<path style="fill:none;stroke-width:2;stroke-linecap:butt;stroke-linejoin:miter;stroke:rgb(0%,0%,0%);stroke-opacity:1;stroke-miterlimit:10;" d="M -73.75 181.621094 C -73.75 187.140625 -78.226562 191.621094 -83.75 191.621094 C -89.273438 191.621094 -93.75 187.140625 -93.75 181.621094 C -93.75 176.097656 -89.273438 171.621094 -83.75 171.621094 C -78.226562 171.621094 -73.75 176.097656 -73.75 181.621094 " transform="matrix(1,0,0,1,250,250)"/>
<path style=" stroke:none;fill-rule:nonzero;fill:rgb(0%,0%,0%);fill-opacity:1;" d="M 167.308594 458.585938 L 163.199219 456.679688 L 162.621094 457.929688 L 166.730469 459.835938 Z M 159.820312 450.667969 L 158.242188 449.949219 L 153.023438 461.261719 L 154.476562 461.933594 C 155.367188 461.683594 156.726562 461.480469 158.054688 461.417969 L 158.804688 459.777344 C 157.835938 459.777344 156.382812 459.933594 155.429688 460.199219 Z M 153.152344 450.886719 C 154.167969 448.496094 152.667969 447.074219 151.121094 446.355469 C 146.980469 444.449219 144.980469 448.746094 144.214844 450.402344 C 143.496094 451.933594 143.246094 452.808594 143.136719 453.574219 C 142.730469 456.183594 144.277344 457.480469 145.496094 458.042969 C 147.277344 458.855469 149.605469 458.667969 150.808594 456.074219 C 151.902344 453.699219 150.792969 451.730469 148.996094 450.902344 C 148.121094 450.496094 146.917969 450.324219 145.808594 451.152344 C 146.542969 449.355469 147.902344 446.433594 150.386719 447.589844 C 151.652344 448.167969 151.886719 449.105469 151.433594 450.089844 Z M 144.996094 453.355469 C 145.636719 451.996094 146.855469 451.433594 148.136719 452.027344 C 149.371094 452.589844 149.886719 453.839844 149.199219 455.308594 C 148.574219 456.652344 147.386719 457.433594 146.058594 456.824219 C 144.933594 456.308594 144.246094 454.996094 144.996094 453.355469 Z M 146.0625 444.335938 "/>
<path style="fill:none;stroke-width:2;stroke-linecap:butt;stroke-linejoin:miter;stroke:rgb(0%,0%,0%);stroke-opacity:1;stroke-miterlimit:10;" d="M -47.089844 191.679688 C -47.089844 197.203125 -51.566406 201.679688 -57.089844 201.679688 C -62.613281 201.679688 -67.089844 197.203125 -67.089844 191.679688 C -67.089844 186.15625 -62.613281 181.679688 -57.089844 181.679688 C -51.566406 181.679688 -47.089844 186.15625 -47.089844 191.679688 " transform="matrix(1,0,0,1,250,250)"/>
<path style=" stroke:none;fill-rule:nonzero;fill:rgb(0%,0%,0%);fill-opacity:1;" d="M 197.792969 468.214844 L 193.449219 466.933594 L 193.058594 468.261719 L 197.402344 469.542969 Z M 193.015625 462.582031 L 185.421875 460.316406 L 185.015625 461.675781 L 190.6875 463.363281 L 188.015625 464.722656 C 187.5625 464.988281 185.578125 466.082031 185.109375 466.410156 C 183.3125 467.691406 183.09375 468.238281 182.875 468.988281 C 182.109375 471.550781 183.6875 473.035156 185.515625 473.582031 C 186.28125 473.816406 187.3125 473.957031 188.359375 473.503906 C 189.671875 472.910156 190.046875 471.785156 190.25 471.191406 L 188.4375 470.660156 C 188.296875 471.113281 187.78125 472.738281 185.859375 472.175781 C 184.15625 471.660156 184.359375 470.238281 184.53125 469.644531 C 184.71875 469.003906 185.0625 468.535156 186.03125 467.785156 C 186.796875 467.222656 187.65625 466.738281 188.5 466.285156 L 192.546875 464.160156 Z M 181.832031 465.585938 C 182.457031 463.460938 182.441406 462.179688 182.269531 461.273438 C 182.082031 460.070312 181.269531 458.820312 179.675781 458.351562 C 179.160156 458.195312 178.097656 458.007812 177.019531 458.539062 C 175.644531 459.242188 174.582031 460.664062 173.753906 463.492188 C 173.082031 465.742188 172.378906 469.679688 175.941406 470.742188 C 179.738281 471.867188 181.300781 467.367188 181.832031 465.585938 Z M 180.160156 465.195312 C 179.519531 467.335938 178.410156 469.992188 176.332031 469.367188 C 174.519531 468.820312 174.628906 466.695312 175.488281 463.820312 C 176.113281 461.695312 177.238281 459.179688 179.222656 459.773438 C 181.035156 460.304688 180.957031 462.539062 180.160156 465.195312 Z M 174.742188 457.132812 "/>
<path style="fill:none;stroke-width:2;stroke-linecap:butt;stroke-linejoin:miter;stroke:rgb(0%,0%,0%);stroke-opacity:1;stroke-miterlimit:10;" d="M 28.246094 -188.339844 C 16.796875 -165 6.824219 -165.714844 -1.191406 -190.441406 " transform="matrix(1,0,0,1,250,250)"/>
<path style=" stroke:none;fill-rule:nonzero;fill:rgb(0%,0%,0%);fill-opacity:1;" d="M 248.808594 59.558594 L 256.648438 67.527344 L 247.136719 70.613281 Z M 248.808594 59.558594 "/>
</g>
</svg>
